{
.appVersion = "965";
copyright = "Copyright 2017 Google Inc. All Rights Reserved.";
customParameters = (
{
name = glyphOrder;
value = (
.notdef,
NULL,
CR,
space,
uni103A0,
uni103A1,
uni103A2,
uni103A3,
uni103A4,
uni103A5,
uni103A6,
uni103A7,
uni103A8,
uni103A9,
uni103AA,
uni103AB,
uni103AC,
uni103AD,
uni103AE,
uni103AF,
uni103B0,
uni103B1,
uni103B2,
uni103B3,
uni103B4,
uni103B5,
uni103B6,
uni103B7,
uni103B8,
uni103B9,
uni103BA,
uni103BB,
uni103BC,
uni103BD,
uni103BE,
uni103BF,
uni103C0,
uni103C1,
uni103C2,
uni103C3,
uni103C8,
uni103C9,
uni103CA,
uni103CB,
uni103CC,
uni103CD,
uni103CE,
uni103CF,
uni103D0,
uni103D1,
uni103D2,
uni103D3,
uni103D4,
uni103D5,
uni00A0
);
},
{
name = description;
value = "Designed by Monotype design team.";
},
{
name = license;
value = "This Font Software is licensed under the SIL Open Font License, Version 1.1. This Font Software is distributed on an \"AS IS\" BASIS, WITHOUT WARRANTIES OR CONDITIONS OF ANY KIND, either express or implied. See the SIL Open Font License for the specific language, permissions and limitations governing your use of this Font Software.";
},
{
name = licenseURL;
value = "http://scripts.sil.org/OFL";
},
{
name = vendorID;
value = GOOG;
},
{
name = unicodeRanges;
value = (
0,
1,
57,
104
);
},
{
name = trademark;
value = "Noto is a trademark of Google Inc.";
},
{
name = "Has WWS Names";
value = 1;
},
{
name = versionString;
value = "Version 1.900";
},
{
name = fsType;
value = (
);
},
{
name = codePageRanges;
value = (
"1252"
);
}
);
date = "2017-02-01 20:21:23 +0000";
designer = "Monotype Design Team";
designerURL = "http://www.monotype.com/studio";
disablesAutomaticAlignment = 1;
disablesNiceNames = 1;
familyName = "Noto Sans Old Persian";
fontMaster = (
{
alignmentZones = (
"{1069, 15}",
"{724, 15}",
"{536, 15}",
"{0, -15}",
"{-293, -15}"
);
ascender = 1069;
capHeight = 724;
customParameters = (
{
name = typoAscender;
value = 1069;
},
{
name = typoDescender;
value = -293;
},
{
name = typoLineGap;
value = 0;
},

glyphs = (
{
glyphname = .notdef;
lastChange = "2017-02-01 21:19:02 +0000";
layers = (
{
layerId = UUID0;
paths = (
{
closed = 1;
nodes = (
"505 0 LINE",
"505 714 LINE",
"94 714 LINE",
"94 0 LINE"
);
},
{
closed = 1;
nodes = (
"145 663 LINE",
"454 663 LINE",
"454 51 LINE",
"145 51 LINE"
);
}
);
width = 600;
}
);
},
{
glyphname = uni103A0;
lastChange = "2017-02-01 21:19:02 +0000";
layers = (
{
layerId = UUID0;
paths = (
{
closed = 1;
nodes = (
"316 609 OFFCURVE",
"466 628 OFFCURVE",
"947 664 CURVE",
"947 687 LINE",
"490 701 OFFCURVE",
"292 725 OFFCURVE",
"164 770 CURVE",
"170 732 OFFCURVE",
"173 696 OFFCURVE",
"173 662 CURVE SMOOTH",
"173 625 OFFCURVE",
"170 589 OFFCURVE",
"164 554 CURVE"
);
},
{
closed = 1;
nodes = (
"325 -98 LINE",
"339 266 OFFCURVE",
"362 405 OFFCURVE",
"408 528 CURVE",
"368 521 OFFCURVE",
"332 518 OFFCURVE",
"297 518 CURVE SMOOTH",
"261 518 OFFCURVE",
"227 521 OFFCURVE",
"192 528 CURVE",
"247 381 OFFCURVE",
"265 285 OFFCURVE",
"299 -98 CURVE"
);
},
{
closed = 1;
nodes = (
"581 -98 LINE",
"596 266 OFFCURVE",
"620 405 OFFCURVE",
"664 528 CURVE",
"624 521 OFFCURVE",
"588 518 OFFCURVE",
"553 518 CURVE SMOOTH",
"517 518 OFFCURVE",
"483 521 OFFCURVE",
"448 528 CURVE",
"503 381 OFFCURVE",
"521 285 OFFCURVE",
"555 -98 CURVE"
);
},
{
closed = 1;
nodes = (
"840 -98 LINE",
"854 266 OFFCURVE",
"877 405 OFFCURVE",
"923 528 CURVE",
"883 521 OFFCURVE",
"847 518 OFFCURVE",
"812 518 CURVE SMOOTH",
"776 518 OFFCURVE",
"742 521 OFFCURVE",
"707 528 CURVE",
"762 381 OFFCURVE",
"780 285 OFFCURVE",
"814 -98 CURVE"
);
}
);
width = 1111;
}
);
unicode = 103A0;
},
{
glyphname = uni103A1;
lastChange = "2017-02-01 21:19:02 +0000";
layers = (
{
layerId = UUID0;
paths = (
{
closed = 1;
nodes = (
"223 594 OFFCURVE",
"315 628 OFFCURVE",
"521 661 CURVE",
"521 624 OFFCURVE",
"519 589 OFFCURVE",
"516 554 CURVE",
"587 595 OFFCURVE",
"680 630 OFFCURVE",
"897 664 CURVE",
"897 687 LINE",
"694 703 OFFCURVE",
"579 734 OFFCURVE",
"512 770 CURVE",
"516 741 OFFCURVE",
"519 714 OFFCURVE",
"521 688 CURVE",
"327 704 OFFCURVE",
"215 735 OFFCURVE",
"150 770 CURVE",
"157 728 OFFCURVE",
"160 689 OFFCURVE",
"160 652 CURVE SMOOTH",
"160 619 OFFCURVE",
"158 586 OFFCURVE",
"155 554 CURVE"
);
},
{
closed = 1;
nodes = (
"371 -98 LINE",
"385 266 OFFCURVE",
"408 405 OFFCURVE",
"454 528 CURVE",
"414 521 OFFCURVE",
"378 518 OFFCURVE",
"343 518 CURVE SMOOTH",
"307 518 OFFCURVE",
"273 521 OFFCURVE",
"238 528 CURVE",
"293 381 OFFCURVE",
"310 285 OFFCURVE",
"345 -98 CURVE"
);
},
{
closed = 1;
nodes = (
"707 -98 LINE",
"722 266 OFFCURVE",
"745 405 OFFCURVE",
"791 528 CURVE",
"751 521 OFFCURVE",
"715 518 OFFCURVE",
"680 518 CURVE SMOOTH",
"644 518 OFFCURVE",
"610 521 OFFCURVE",
"575 528 CURVE",
"629 381 OFFCURVE",
"648 285 OFFCURVE",
"681 -98 CURVE"
);
}
);
width = 1022;
}
);
unicode = 103A1;
},
{
glyphname = uni103A2;
lastChange = "2017-02-01 21:19:02 +0000";
layers = (
{
layerId = UUID0;
paths = (
{
closed = 1;
nodes = (
"586 -104 LINE",
"460 79 OFFCURVE",
"376 209 OFFCURVE",
"326 294 CURVE",
"391 412 OFFCURVE",
"467 551 OFFCURVE",
"564 747 CURVE",
"545 758 LINE",
"383 551 OFFCURVE",
"214 366 OFFCURVE",
"122 282 CURVE",
"221 201 OFFCURVE",
"350 95 OFFCURVE",
"569 -120 CURVE"
);
},
{
closed = 1;
nodes = (
"692 -107 LINE",
"707 259 OFFCURVE",
"731 398 OFFCURVE",
"775 520 CURVE",
"735 514 OFFCURVE",
"699 511 OFFCURVE",
"665 511 CURVE SMOOTH",
"629 511 OFFCURVE",
"594 514 OFFCURVE",
"559 520 CURVE",
"614 374 OFFCURVE",
"632 278 OFFCURVE",
"666 -107 CURVE"
);
},
{
closed = 1;
nodes = (
"939 -107 LINE",
"954 259 OFFCURVE",
"978 398 OFFCURVE",
"1022 520 CURVE",
"982 514 OFFCURVE",
"946 511 OFFCURVE",
"912 511 CURVE SMOOTH",
"876 511 OFFCURVE",
"842 514 OFFCURVE",
"807 520 CURVE",
"862 374 OFFCURVE",
"879 278 OFFCURVE",
"913 -107 CURVE"
);
},
{
closed = 1;
nodes = (
"695 587 OFFCURVE",
"789 623 OFFCURVE",
"1006 655 CURVE",
"1006 678 LINE",
"803 695 OFFCURVE",
"688 727 OFFCURVE",
"621 762 CURVE",
"628 719 OFFCURVE",
"631 681 OFFCURVE",
"631 644 CURVE SMOOTH",
"631 611 OFFCURVE",
"628 579 OFFCURVE",
"625 546 CURVE"
);
}
);
width = 1186;
}
);
unicode = 103A2;
},
{
glyphname = uni103A3;
lastChange = "2017-02-01 21:19:02 +0000";
layers = (
{
layerId = UUID0;
paths = (
{
closed = 1;
nodes = (
"297 -112 LINE",
"311 381 OFFCURVE",
"334 569 OFFCURVE",
"380 736 CURVE",
"340 727 OFFCURVE",
"304 723 OFFCURVE",
"269 723 CURVE SMOOTH",
"233 723 OFFCURVE",
"198 727 OFFCURVE",
"164 736 CURVE",
"219 538 OFFCURVE",
"237 407 OFFCURVE",
"271 -112 CURVE"
);
},
{
closed = 1;
nodes = (
"489 53 OFFCURVE",
"596 90 OFFCURVE",
"813 122 CURVE",
"813 146 LINE",
"610 161 OFFCURVE",
"481 192 OFFCURVE",
"414 229 CURVE",
"421 188 OFFCURVE",
"424 150 OFFCURVE",
"424 114 CURVE SMOOTH",
"424 79 OFFCURVE",
"421 46 OFFCURVE",
"418 13 CURVE"
);
},
{
closed = 1;
nodes = (
"484 434 OFFCURVE",
"591 471 OFFCURVE",
"808 503 CURVE",
"808 526 LINE",
"605 542 OFFCURVE",
"475 573 OFFCURVE",
"409 610 CURVE",
"416 570 OFFCURVE",
"418 532 OFFCURVE",
"418 497 CURVE SMOOTH",
"418 461 OFFCURVE",
"416 428 OFFCURVE",
"412 394 CURVE"
);
}
);
width = 962;
}
);
unicode = 103A3;
},
{
glyphname = uni103A4;
lastChange = "2017-02-01 21:19:02 +0000";
layers = (
{
layerId = UUID0;
paths = (
{
closed = 1;
nodes = (
"586 -105 LINE",
"460 79 OFFCURVE",
"376 209 OFFCURVE",
"326 293 CURVE",
"391 411 OFFCURVE",
"467 551 OFFCURVE",
"564 747 CURVE",
"545 757 LINE",
"383 551 OFFCURVE",
"214 366 OFFCURVE",
"122 281 CURVE",
"221 201 OFFCURVE",
"350 94 OFFCURVE",
"569 -120 CURVE"
);
},
{
closed = 1;
nodes = (
"732 -112 LINE",
"746 380 OFFCURVE",
"769 569 OFFCURVE",
"815 735 CURVE",
"778 728 OFFCURVE",
"741 724 OFFCURVE",
"704 724 CURVE SMOOTH",
"668 724 OFFCURVE",
"633 728 OFFCURVE",
"599 735 CURVE",
"654 538 OFFCURVE",
"672 406 OFFCURVE",
"706 -112 CURVE"
);
}
);
width = 979;
}
);
unicode = 103A4;
},
{
glyphname = uni103A5;
lastChange = "2017-02-01 21:19:02 +0000";
layers = (
{
layerId = UUID0;
paths = (
{
closed = 1;
nodes = (
"551 -105 LINE",
"436 79 OFFCURVE",
"358 209 OFFCURVE",
"315 293 CURVE",
"374 411 OFFCURVE",
"442 551 OFFCURVE",
"529 747 CURVE",
"509 757 LINE",
"362 551 OFFCURVE",
"206 366 OFFCURVE",
"122 281 CURVE",
"211 201 OFFCURVE",
"331 94 OFFCURVE",
"530 -120 CURVE"
);
},
{
closed = 1;
nodes = (
"700 -112 LINE",
"715 380 OFFCURVE",
"738 569 OFFCURVE",
"783 735 CURVE",
"746 728 OFFCURVE",
"709 724 OFFCURVE",
"673 724 CURVE SMOOTH",
"637 724 OFFCURVE",
"602 728 OFFCURVE",
"568 735 CURVE",
"622 538 OFFCURVE",
"639 406 OFFCURVE",
"674 -112 CURVE"
);
},
{
closed = 1;
nodes = (
"954 -112 LINE",
"968 380 OFFCURVE",
"991 569 OFFCURVE",
"1037 735 CURVE",
"1000 728 OFFCURVE",
"963 724 OFFCURVE",
"927 724 CURVE SMOOTH",
"891 724 OFFCURVE",
"856 728 OFFCURVE",
"821 735 CURVE",
"876 538 OFFCURVE",
"894 406 OFFCURVE",
"928 -112 CURVE"
);
},
{
closed = 1;
nodes = (
"1107 246 OFFCURVE",
"1197 283 OFFCURVE",
"1380 315 CURVE",
"1380 339 LINE",
"1209 354 OFFCURVE",
"1099 387 OFFCURVE",
"1043 422 CURVE",
"1050 379 OFFCURVE",
"1053 341 OFFCURVE",
"1053 304 CURVE SMOOTH",
"1053 270 OFFCURVE",
"1050 238 OFFCURVE",
"1047 206 CURVE"
);
}
);
width = 1509;
}
);
unicode = 103A5;
},
{
glyphname = uni103A6;
lastChange = "2017-02-01 21:19:02 +0000";
layers = (
{
layerId = UUID0;
paths = (
{
closed = 1;
nodes = (
"551 -105 LINE",
"437 79 OFFCURVE",
"359 209 OFFCURVE",
"316 293 CURVE",
"375 411 OFFCURVE",
"442 551 OFFCURVE",
"529 747 CURVE",
"510 757 LINE",
"363 551 OFFCURVE",
"207 366 OFFCURVE",
"122 281 CURVE",
"212 201 OFFCURVE",
"332 94 OFFCURVE",
"531 -120 CURVE"
);
},
{
closed = 1;
nodes = (
"649 -1 OFFCURVE",
"805 36 OFFCURVE",
"1081 68 CURVE",
"1081 92 LINE",
"823 107 OFFCURVE",
"639 142 OFFCURVE",
"554 175 CURVE",
"563 133 OFFCURVE",
"566 95 OFFCURVE",
"566 58 CURVE SMOOTH",
"566 24 OFFCURVE",
"563 -8 OFFCURVE",
"559 -41 CURVE"
);
},
{
closed = 1;
nodes = (
"644 255 OFFCURVE",
"797 291 OFFCURVE",
"1071 323 CURVE",
"1071 346 LINE",
"817 363 OFFCURVE",
"632 397 OFFCURVE",
"546 430 CURVE",
"556 389 OFFCURVE",
"560 352 OFFCURVE",
"560 316 CURVE SMOOTH",
"560 281 OFFCURVE",
"556 248 OFFCURVE",
"551 214 CURVE"
);
},
{
closed = 1;
nodes = (
"596 507 OFFCURVE",
"667 546 OFFCURVE",
"809 579 CURVE",
"809 542 OFFCURVE",
"805 506 OFFCURVE",
"801 471 CURVE",
"849 508 OFFCURVE",
"922 548 OFFCURVE",
"1071 582 CURVE",
"1071 601 LINE",
"932 621 OFFCURVE",
"843 655 OFFCURVE",
"797 687 CURVE",
"803 657 OFFCURVE",
"806 630 OFFCURVE",
"808 603 CURVE",
"675 623 OFFCURVE",
"591 656 OFFCURVE",
"546 687 CURVE",
"554 648 OFFCURVE",
"557 612 OFFCURVE",
"557 577 CURVE SMOOTH",
"557 541 OFFCURVE",
"554 506 OFFCURVE",
"550 471 CURVE"
);
}
);
width = 1230;
}
);
unicode = 103A6;
},
{
glyphname = uni103A7;
lastChange = "2017-02-01 21:19:02 +0000";
layers = (
{
layerId = UUID0;
paths = (
{
closed = 1;
nodes = (
"814 -105 LINE",
"699 79 OFFCURVE",
"621 209 OFFCURVE",
"577 293 CURVE",
"636 411 OFFCURVE",
"704 551 OFFCURVE",
"792 747 CURVE",
"771 757 LINE",
"625 551 OFFCURVE",
"468 366 OFFCURVE",
"385 281 CURVE",
"473 201 OFFCURVE",
"594 94 OFFCURVE",
"793 -120 CURVE"
);
},
{
closed = 1;
nodes = (
"550 -105 LINE",
"435 79 OFFCURVE",
"359 209 OFFCURVE",
"316 293 CURVE",
"374 411 OFFCURVE",
"442 551 OFFCURVE",
"529 747 CURVE",
"508 757 LINE",
"363 551 OFFCURVE",
"207 366 OFFCURVE",
"122 281 CURVE",
"212 201 OFFCURVE",
"331 94 OFFCURVE",
"530 -120 CURVE"
);
},
{
closed = 1;
nodes = (
"962 -112 LINE",
"977 380 OFFCURVE",
"1001 569 OFFCURVE",
"1045 735 CURVE",
"1008 728 OFFCURVE",
"971 724 OFFCURVE",
"935 724 CURVE SMOOTH",
"899 724 OFFCURVE",
"864 728 OFFCURVE",
"829 735 CURVE",
"884 538 OFFCURVE",
"902 406 OFFCURVE",
"936 -112 CURVE"
);
},
{
closed = 1;
nodes = (
"1217 -112 LINE",
"1231 380 OFFCURVE",
"1254 569 OFFCURVE",
"1300 735 CURVE",
"1262 728 OFFCURVE",
"1225 724 OFFCURVE",
"1189 724 CURVE SMOOTH",
"1153 724 OFFCURVE",
"1118 728 OFFCURVE",
"1084 735 CURVE",
"1139 538 OFFCURVE",
"1156 406 OFFCURVE",
"1191 -112 CURVE"
);
}
);
width = 1464;
}
);
unicode = 103A7;
},
{
glyphname = uni103A8;
lastChange = "2017-02-01 21:19:02 +0000";
layers = (
{
layerId = UUID0;
paths = (
{
closed = 1;
nodes = (
"545 -107 LINE",
"559 258 OFFCURVE",
"582 397 OFFCURVE",
"628 519 CURVE",
"589 513 OFFCURVE",
"554 510 OFFCURVE",
"520 510 CURVE SMOOTH",
"483 510 OFFCURVE",
"448 513 OFFCURVE",
"412 519 CURVE",
"467 374 OFFCURVE",
"485 278 OFFCURVE",
"519 -107 CURVE"
);
},
{
closed = 1;
nodes = (
"298 -107 LINE",
"312 258 OFFCURVE",
"335 397 OFFCURVE",
"381 519 CURVE",
"342 513 OFFCURVE",
"307 510 OFFCURVE",
"273 510 CURVE SMOOTH",
"236 510 OFFCURVE",
"201 513 OFFCURVE",
"165 519 CURVE",
"220 374 OFFCURVE",
"238 278 OFFCURVE",
"272 -107 CURVE"
);
},
{
closed = 1;
nodes = (
"251 587 OFFCURVE",
"360 622 OFFCURVE",
"614 655 CURVE",
"614 678 LINE",
"378 695 OFFCURVE",
"242 726 OFFCURVE",
"164 761 CURVE",
"173 721 OFFCURVE",
"176 684 OFFCURVE",
"176 649 CURVE SMOOTH",
"176 614 OFFCURVE",
"173 580 OFFCURVE",
"168 545 CURVE"
);
},
{
closed = 1;
nodes = (
"715 346 OFFCURVE",
"788 388 OFFCURVE",
"937 421 CURVE",
"937 441 LINE",
"798 460 OFFCURVE",
"710 493 OFFCURVE",
"663 526 CURVE",
"672 487 OFFCURVE",
"675 450 OFFCURVE",
"675 414 CURVE SMOOTH",
"675 378 OFFCURVE",
"672 344 OFFCURVE",
"667 310 CURVE"
);
}
);
width = 1067;
}
);
unicode = 103A8;
},
{
glyphname = uni103A9;
lastChange = "2017-02-01 21:19:02 +0000";
layers = (
{
layerId = UUID0;
paths = (
{
closed = 1;
nodes = (
"1057 -105 LINE",
"941 79 OFFCURVE",
"865 209 OFFCURVE",
"820 293 CURVE",
"879 411 OFFCURVE",
"948 551 OFFCURVE",
"1035 747 CURVE",
"1014 757 LINE",
"868 551 OFFCURVE",
"711 366 OFFCURVE",
"628 281 CURVE",
"716 201 OFFCURVE",
"837 94 OFFCURVE",
"1036 -120 CURVE"
);
},
{
closed = 1;
nodes = (
"192 246 OFFCURVE",
"282 283 OFFCURVE",
"465 315 CURVE",
"465 339 LINE",
"295 354 OFFCURVE",
"186 387 OFFCURVE",
"130 422 CURVE",
"136 380 OFFCURVE",
"138 342 OFFCURVE",
"138 306 CURVE SMOOTH",
"138 272 OFFCURVE",
"136 239 OFFCURVE",
"134 206 CURVE"
);
},
{
closed = 1;
nodes = (
"571 -112 LINE",
"585 380 OFFCURVE",
"608 569 OFFCURVE",
"654 735 CURVE",
"617 728 OFFCURVE",
"580 724 OFFCURVE",
"544 724 CURVE SMOOTH",
"508 724 OFFCURVE",
"473 728 OFFCURVE",
"438 735 CURVE",
"493 538 OFFCURVE",
"511 406 OFFCURVE",
"545 -112 CURVE"
);
}
);
width = 1166;
}
);
unicode = 103A9;
},
{
glyphname = uni103AA;
lastChange = "2017-02-01 21:19:02 +0000";
layers = (
{
layerId = UUID0;
paths = (
{
closed = 1;
nodes = (
"807 -105 LINE",
"691 79 OFFCURVE",
"613 209 OFFCURVE",
"570 293 CURVE",
"629 411 OFFCURVE",
"698 551 OFFCURVE",
"785 747 CURVE",
"764 757 LINE",
"625 560 OFFCURVE",
"476 383 OFFCURVE",
"390 294 CURVE",
"259 313 OFFCURVE",
"173 346 OFFCURVE",
"130 376 CURVE",
"138 337 OFFCURVE",
"140 300 OFFCURVE",
"140 264 CURVE SMOOTH",
"140 229 OFFCURVE",
"138 195 OFFCURVE",
"134 161 CURVE",
"180 197 OFFCURVE",
"249 237 OFFCURVE",
"392 268 CURVE",
"478 190 OFFCURVE",
"596 83 OFFCURVE",
"786 -120 CURVE"
);
},
{
closed = 1;
nodes = (
"863 -11 OFFCURVE",
"934 29 OFFCURVE",
"1085 63 CURVE",
"1085 83 LINE",
"946 102 OFFCURVE",
"856 136 OFFCURVE",
"811 168 CURVE",
"819 129 OFFCURVE",
"822 92 OFFCURVE",
"822 56 CURVE SMOOTH",
"822 21 OFFCURVE",
"819 -14 OFFCURVE",
"815 -47 CURVE"
);
},
{
closed = 1;
nodes = (
"863 248 OFFCURVE",
"934 289 OFFCURVE",
"1085 322 CURVE",
"1085 343 LINE",
"946 362 OFFCURVE",
"856 396 OFFCURVE",
"811 427 CURVE",
"819 388 OFFCURVE",
"822 351 OFFCURVE",
"822 315 CURVE SMOOTH",
"822 280 OFFCURVE",
"819 246 OFFCURVE",
"815 211 CURVE"
);
},
{
closed = 1;
nodes = (
"863 508 OFFCURVE",
"934 548 OFFCURVE",
"1085 582 CURVE",
"1085 601 LINE",
"946 621 OFFCURVE",
"856 655 OFFCURVE",
"811 687 CURVE",
"819 648 OFFCURVE",
"822 611 OFFCURVE",
"822 575 CURVE SMOOTH",
"822 539 OFFCURVE",
"819 505 OFFCURVE",
"815 471 CURVE"
);
}
);
width = 1235;
}
);
unicode = 103AA;
},
{
glyphname = uni103AB;
lastChange = "2017-02-01 21:19:02 +0000";
layers = (
{
layerId = UUID0;
paths = (
{
closed = 1;
nodes = (
"941 -112 LINE",
"957 381 OFFCURVE",
"980 569 OFFCURVE",
"1026 736 CURVE",
"988 728 OFFCURVE",
"951 724 OFFCURVE",
"915 724 CURVE SMOOTH",
"879 724 OFFCURVE",
"844 728 OFFCURVE",
"810 736 CURVE",
"864 538 OFFCURVE",
"881 407 OFFCURVE",
"916 -112 CURVE"
);
},
{
closed = 1;
nodes = (
"208 144 OFFCURVE",
"279 185 OFFCURVE",
"430 217 CURVE",
"430 238 LINE",
"291 257 OFFCURVE",
"201 291 OFFCURVE",
"156 322 CURVE",
"164 283 OFFCURVE",
"167 246 OFFCURVE",
"167 210 CURVE SMOOTH",
"167 175 OFFCURVE",
"164 141 OFFCURVE",
"160 107 CURVE"
);
},
{
closed = 1;
nodes = (
"204 399 OFFCURVE",
"277 439 OFFCURVE",
"428 473 CURVE",
"428 493 LINE",
"289 512 OFFCURVE",
"198 546 OFFCURVE",
"153 578 CURVE",
"161 539 OFFCURVE",
"164 502 OFFCURVE",
"164 466 CURVE SMOOTH",
"164 431 OFFCURVE",
"161 397 OFFCURVE",
"157 363 CURVE"
);
},
{
closed = 1;
nodes = (
"530 -112 LINE",
"546 381 OFFCURVE",
"569 569 OFFCURVE",
"614 736 CURVE",
"577 728 OFFCURVE",
"540 724 OFFCURVE",
"504 724 CURVE SMOOTH",
"468 724 OFFCURVE",
"433 728 OFFCURVE",
"399 736 CURVE",
"454 538 OFFCURVE",
"471 407 OFFCURVE",
"504 -112 CURVE"
);
},
{
closed = 1;
nodes = (
"740 -107 LINE",
"755 259 OFFCURVE",
"777 398 OFFCURVE",
"823 520 CURVE",
"783 514 OFFCURVE",
"747 511 OFFCURVE",
"713 511 CURVE SMOOTH",
"677 511 OFFCURVE",
"642 514 OFFCURVE",
"607 520 CURVE",
"662 374 OFFCURVE",
"680 278 OFFCURVE",
"714 -107 CURVE"
);
}
);
width = 1189;
}
);
unicode = 103AB;
},
{
glyphname = uni103AC;
lastChange = "2017-02-01 21:19:02 +0000";
layers = (
{
layerId = UUID0;
paths = (
{
closed = 1;
nodes = (
"788 -112 LINE",
"802 381 OFFCURVE",
"826 569 OFFCURVE",
"871 736 CURVE",
"834 728 OFFCURVE",
"797 724 OFFCURVE",
"760 724 CURVE SMOOTH",
"724 724 OFFCURVE",
"689 728 OFFCURVE",
"655 736 CURVE",
"710 538 OFFCURVE",
"728 407 OFFCURVE",
"762 -112 CURVE"
);
},
{
closed = 1;
nodes = (
"297 -112 LINE",
"311 381 OFFCURVE",
"334 569 OFFCURVE",
"380 736 CURVE",
"342 728 OFFCURVE",
"305 724 OFFCURVE",
"269 724 CURVE SMOOTH",
"233 724 OFFCURVE",
"198 728 OFFCURVE",
"164 736 CURVE",
"219 538 OFFCURVE",
"237 407 OFFCURVE",
"271 -112 CURVE"
);
},
{
closed = 1;
nodes = (
"541 -112 LINE",
"555 381 OFFCURVE",
"579 569 OFFCURVE",
"624 736 CURVE",
"587 728 OFFCURVE",
"550 724 OFFCURVE",
"513 724 CURVE SMOOTH",
"477 724 OFFCURVE",
"442 728 OFFCURVE",
"408 736 CURVE",
"463 538 OFFCURVE",
"481 407 OFFCURVE",
"515 -112 CURVE"
);
},
{
closed = 1;
nodes = (
"921 265 OFFCURVE",
"992 307 OFFCURVE",
"1143 339 CURVE",
"1143 360 LINE",
"1004 378 OFFCURVE",
"914 412 OFFCURVE",
"869 445 CURVE",
"877 405 OFFCURVE",
"879 368 OFFCURVE",
"879 332 CURVE SMOOTH",
"879 297 OFFCURVE",
"877 263 OFFCURVE",
"873 229 CURVE"
);
}
);
width = 1273;
}
);
unicode = 103AC;
},
{
glyphname = uni103AD;
lastChange = "2017-02-01 21:19:02 +0000";
layers = (
{
layerId = UUID0;
paths = (
{
closed = 1;
nodes = (
"545 -107 LINE",
"559 258 OFFCURVE",
"583 397 OFFCURVE",
"628 519 CURVE",
"589 513 OFFCURVE",
"554 510 OFFCURVE",
"520 510 CURVE SMOOTH",
"483 510 OFFCURVE",
"448 513 OFFCURVE",
"412 519 CURVE",
"467 374 OFFCURVE",
"485 278 OFFCURVE",
"519 -107 CURVE"
);
},
{
closed = 1;
nodes = (
"298 -107 LINE",
"312 258 OFFCURVE",
"336 397 OFFCURVE",
"381 519 CURVE",
"342 513 OFFCURVE",
"307 510 OFFCURVE",
"273 510 CURVE SMOOTH",
"236 510 OFFCURVE",
"201 513 OFFCURVE",
"165 519 CURVE",
"220 374 OFFCURVE",
"238 278 OFFCURVE",
"272 -107 CURVE"
);
},
{
closed = 1;
nodes = (
"219 587 OFFCURVE",
"411 622 OFFCURVE",
"664 655 CURVE",
"664 678 LINE",
"429 695 OFFCURVE",
"209 726 OFFCURVE",
"131 761 CURVE",
"139 720 OFFCURVE",
"142 683 OFFCURVE",
"142 647 CURVE SMOOTH",
"142 612 OFFCURVE",
"139 579 OFFCURVE",
"135 545 CURVE"
);
}
);
width = 792;
}
);
unicode = 103AD;
},
{
glyphname = uni103AE;
lastChange = "2017-02-01 21:19:02 +0000";
layers = (
{
layerId = UUID0;
paths = (
{
closed = 1;
nodes = (
"859 -112 LINE",
"875 381 OFFCURVE",
"898 569 OFFCURVE",
"944 736 CURVE",
"907 728 OFFCURVE",
"870 724 OFFCURVE",
"833 724 CURVE SMOOTH",
"797 724 OFFCURVE",
"762 728 OFFCURVE",
"728 736 CURVE",
"783 538 OFFCURVE",
"800 407 OFFCURVE",
"835 -112 CURVE"
);
},
{
closed = 1;
nodes = (
"220 -10 OFFCURVE",
"298 30 OFFCURVE",
"462 64 CURVE",
"462 83 LINE",
"310 103 OFFCURVE",
"215 136 OFFCURVE",
"164 169 CURVE",
"173 130 OFFCURVE",
"176 94 OFFCURVE",
"176 59 CURVE SMOOTH",
"176 23 OFFCURVE",
"173 -12 OFFCURVE",
"168 -47 CURVE"
);
},
{
closed = 1;
nodes = (
"220 248 OFFCURVE",
"298 290 OFFCURVE",
"462 322 CURVE",
"462 343 LINE",
"310 363 OFFCURVE",
"215 396 OFFCURVE",
"164 428 CURVE",
"173 389 OFFCURVE",
"176 353 OFFCURVE",
"176 318 CURVE SMOOTH",
"176 282 OFFCURVE",
"173 247 OFFCURVE",
"168 212 CURVE"
);
},
{
closed = 1;
nodes = (
"220 508 OFFCURVE",
"298 549 OFFCURVE",
"462 582 CURVE",
"462 602 LINE",
"310 621 OFFCURVE",
"215 655 OFFCURVE",
"164 688 CURVE",
"173 649 OFFCURVE",
"176 612 OFFCURVE",
"176 577 CURVE SMOOTH",
"176 541 OFFCURVE",
"173 506 OFFCURVE",
"168 472 CURVE"
);
},
{
closed = 1;
nodes = (
"606 -112 LINE",
"622 381 OFFCURVE",
"645 569 OFFCURVE",
"689 736 CURVE",
"652 728 OFFCURVE",
"615 724 OFFCURVE",
"579 724 CURVE SMOOTH",
"543 724 OFFCURVE",
"508 728 OFFCURVE",
"473 736 CURVE",
"528 538 OFFCURVE",
"546 407 OFFCURVE",
"580 -112 CURVE"
);
}
);
width = 1108;
}
);
unicode = 103AE;
},
{
glyphname = uni103AF;
lastChange = "2017-02-01 21:19:02 +0000";
layers = (
{
layerId = UUID0;
paths = (
{
closed = 1;
nodes = (
"551 -105 LINE",
"437 79 OFFCURVE",
"359 209 OFFCURVE",
"316 293 CURVE",
"374 411 OFFCURVE",
"442 551 OFFCURVE",
"529 747 CURVE",
"510 757 LINE",
"363 551 OFFCURVE",
"207 366 OFFCURVE",
"122 281 CURVE",
"212 201 OFFCURVE",
"332 94 OFFCURVE",
"530 -120 CURVE"
);
},
{
closed = 1;
nodes = (
"614 8 OFFCURVE",
"733 44 OFFCURVE",
"959 76 CURVE",
"959 99 LINE",
"746 116 OFFCURVE",
"606 150 OFFCURVE",
"537 183 CURVE",
"544 141 OFFCURVE",
"546 104 OFFCURVE",
"546 68 CURVE SMOOTH",
"546 33 OFFCURVE",
"544 1 OFFCURVE",
"541 -33 CURVE"
);
},
{
closed = 1;
nodes = (
"683 233 OFFCURVE",
"761 274 OFFCURVE",
"924 307 CURVE",
"924 327 LINE",
"772 346 OFFCURVE",
"677 380 OFFCURVE",
"627 411 CURVE",
"636 373 OFFCURVE",
"639 337 OFFCURVE",
"639 302 CURVE SMOOTH",
"639 266 OFFCURVE",
"636 232 OFFCURVE",
"631 197 CURVE"
);
},
{
closed = 1;
nodes = (
"610 465 OFFCURVE",
"725 501 OFFCURVE",
"952 534 CURVE",
"952 557 LINE",
"741 573 OFFCURVE",
"601 608 OFFCURVE",
"529 640 CURVE",
"538 599 OFFCURVE",
"541 562 OFFCURVE",
"541 525 CURVE SMOOTH",
"541 491 OFFCURVE",
"538 457 OFFCURVE",
"534 424 CURVE"
);
},
{
closed = 1;
nodes = (
"1102 -112 LINE",
"1118 380 OFFCURVE",
"1141 569 OFFCURVE",
"1186 735 CURVE",
"1149 728 OFFCURVE",
"1112 724 OFFCURVE",
"1076 724 CURVE SMOOTH",
"1040 724 OFFCURVE",
"1005 728 OFFCURVE",
"971 735 CURVE",
"1026 538 OFFCURVE",
"1043 406 OFFCURVE",
"1076 -112 CURVE"
);
}
);
width = 1349;
}
);
unicode = 103AF;
},
{
glyphname = uni103B0;
lastChange = "2017-02-01 21:19:02 +0000";
layers = (
{
layerId = UUID0;
paths = (
{
closed = 1;
nodes = (
"780 -105 LINE",
"664 79 OFFCURVE",
"586 209 OFFCURVE",
"543 293 CURVE",
"602 411 OFFCURVE",
"671 551 OFFCURVE",
"758 747 CURVE",
"737 757 LINE",
"592 551 OFFCURVE",
"434 366 OFFCURVE",
"351 281 CURVE",
"439 201 OFFCURVE",
"559 94 OFFCURVE",
"759 -120 CURVE"
);
},
{
closed = 1;
nodes = (
"296 -112 LINE",
"311 380 OFFCURVE",
"334 569 OFFCURVE",
"380 735 CURVE",
"342 728 OFFCURVE",
"305 724 OFFCURVE",
"269 724 CURVE SMOOTH",
"233 724 OFFCURVE",
"198 728 OFFCURVE",
"164 735 CURVE",
"218 538 OFFCURVE",
"237 406 OFFCURVE",
"270 -112 CURVE"
);
},
{
closed = 1;
nodes = (
"905 -112 LINE",
"920 380 OFFCURVE",
"944 569 OFFCURVE",
"988 735 CURVE",
"951 728 OFFCURVE",
"914 724 OFFCURVE",
"878 724 CURVE SMOOTH",
"842 724 OFFCURVE",
"807 728 OFFCURVE",
"772 735 CURVE",
"827 538 OFFCURVE",
"845 406 OFFCURVE",
"879 -112 CURVE"
);
}
);
width = 1152;
}
);
unicode = 103B0;
},
{
glyphname = uni103B1;
lastChange = "2017-02-01 21:19:02 +0000";
layers = (
{
layerId = UUID0;
paths = (
{
closed = 1;
nodes = (
"361 190 OFFCURVE",
"465 209 OFFCURVE",
"984 242 CURVE",
"984 268 LINE",
"491 284 OFFCURVE",
"330 307 OFFCURVE",
"163 352 CURVE",
"172 315 OFFCURVE",
"176 278 OFFCURVE",
"176 242 CURVE SMOOTH",
"176 206 OFFCURVE",
"172 171 OFFCURVE",
"163 136 CURVE"
);
},
{
closed = 1;
nodes = (
"488 -116 LINE",
"508 23 OFFCURVE",
"542 111 OFFCURVE",
"573 158 CURVE",
"534 150 OFFCURVE",
"497 147 OFFCURVE",
"461 147 CURVE SMOOTH",
"426 147 OFFCURVE",
"392 150 OFFCURVE",
"357 154 CURVE",
"393 106 OFFCURVE",
"435 34 OFFCURVE",
"468 -116 CURVE"
);
},
{
closed = 1;
nodes = (
"743 -114 LINE",
"763 25 OFFCURVE",
"796 116 OFFCURVE",
"828 160 CURVE",
"789 153 OFFCURVE",
"753 150 OFFCURVE",
"718 150 CURVE SMOOTH",
"682 150 OFFCURVE",
"647 153 OFFCURVE",
"612 157 CURVE",
"650 108 OFFCURVE",
"690 37 OFFCURVE",
"722 -114 CURVE"
);
},
{
closed = 1;
nodes = (
"525 400 OFFCURVE",
"595 418 OFFCURVE",
"978 452 CURVE",
"978 478 LINE",
"613 492 OFFCURVE",
"501 515 OFFCURVE",
"379 561 CURVE",
"385 521 OFFCURVE",
"388 485 OFFCURVE",
"388 451 CURVE SMOOTH",
"388 415 OFFCURVE",
"385 380 OFFCURVE",
"379 345 CURVE"
);
},
{
closed = 1;
nodes = (
"361 601 OFFCURVE",
"465 619 OFFCURVE",
"984 653 CURVE",
"984 679 LINE",
"491 695 OFFCURVE",
"330 718 OFFCURVE",
"163 762 CURVE",
"172 725 OFFCURVE",
"176 688 OFFCURVE",
"176 652 CURVE SMOOTH",
"176 616 OFFCURVE",
"172 581 OFFCURVE",
"163 547 CURVE"
);
}
);
width = 1134;
}
);
unicode = 103B1;
},
{
glyphname = uni103B2;
lastChange = "2017-02-01 21:19:02 +0000";
layers = (
{
layerId = UUID0;
paths = (
{
closed = 1;
nodes = (
"727 -112 LINE",
"741 381 OFFCURVE",
"765 569 OFFCURVE",
"810 736 CURVE",
"773 728 OFFCURVE",
"736 724 OFFCURVE",
"699 724 CURVE SMOOTH",
"663 724 OFFCURVE",
"628 728 OFFCURVE",
"594 736 CURVE",
"649 538 OFFCURVE",
"666 407 OFFCURVE",
"701 -112 CURVE"
);
},
{
closed = 1;
nodes = (
"243 120 OFFCURVE",
"332 155 OFFCURVE",
"606 187 CURVE",
"606 211 LINE",
"350 227 OFFCURVE",
"234 261 OFFCURVE",
"149 294 CURVE",
"158 250 OFFCURVE",
"161 211 OFFCURVE",
"161 173 CURVE SMOOTH",
"161 140 OFFCURVE",
"159 110 OFFCURVE",
"155 78 CURVE"
);
},
{
closed = 1;
nodes = (
"238 374 OFFCURVE",
"324 409 OFFCURVE",
"598 443 CURVE",
"598 465 LINE",
"344 482 OFFCURVE",
"227 516 OFFCURVE",
"141 549 CURVE",
"151 508 OFFCURVE",
"154 471 OFFCURVE",
"154 435 CURVE SMOOTH",
"154 401 OFFCURVE",
"151 367 OFFCURVE",
"146 334 CURVE"
);
}
);
width = 974;
}
);
unicode = 103B2;
},
{
glyphname = uni103B3;
lastChange = "2017-02-01 21:19:02 +0000";
layers = (
{
layerId = UUID0;
paths = (
{
closed = 1;
nodes = (
"788 -105 LINE",
"673 79 OFFCURVE",
"597 209 OFFCURVE",
"552 293 CURVE",
"611 411 OFFCURVE",
"680 551 OFFCURVE",
"767 747 CURVE",
"745 757 LINE",
"600 551 OFFCURVE",
"443 366 OFFCURVE",
"360 281 CURVE",
"448 201 OFFCURVE",
"569 94 OFFCURVE",
"768 -120 CURVE"
);
},
{
closed = 1;
nodes = (
"296 -112 LINE",
"311 380 OFFCURVE",
"334 569 OFFCURVE",
"379 735 CURVE",
"342 728 OFFCURVE",
"305 724 OFFCURVE",
"269 724 CURVE SMOOTH",
"233 724 OFFCURVE",
"198 728 OFFCURVE",
"164 735 CURVE",
"218 538 OFFCURVE",
"236 406 OFFCURVE",
"270 -112 CURVE"
);
},
{
closed = 1;
nodes = (
"1050 -105 LINE",
"936 79 OFFCURVE",
"858 209 OFFCURVE",
"815 293 CURVE",
"873 411 OFFCURVE",
"941 551 OFFCURVE",
"1029 747 CURVE",
"1009 757 LINE",
"863 551 OFFCURVE",
"706 366 OFFCURVE",
"623 281 CURVE",
"711 201 OFFCURVE",
"831 94 OFFCURVE",
"1031 -120 CURVE"
);
}
);
width = 1159;
}
);
unicode = 103B3;
},
{
glyphname = uni103B4;
lastChange = "2017-02-01 21:19:02 +0000";
layers = (
{
layerId = UUID0;
paths = (
{
closed = 1;
nodes = (
"911 -105 LINE",
"796 79 OFFCURVE",
"720 209 OFFCURVE",
"677 293 CURVE",
"735 411 OFFCURVE",
"803 551 OFFCURVE",
"891 747 CURVE",
"869 757 LINE",
"725 551 OFFCURVE",
"568 366 OFFCURVE",
"484 281 CURVE",
"573 201 OFFCURVE",
"692 94 OFFCURVE",
"893 -120 CURVE"
);
},
{
closed = 1;
nodes = (
"252 -12 OFFCURVE",
"367 23 OFFCURVE",
"643 55 CURVE",
"643 79 LINE",
"386 96 OFFCURVE",
"243 129 OFFCURVE",
"158 162 CURVE",
"166 120 OFFCURVE",
"170 82 OFFCURVE",
"170 45 CURVE SMOOTH",
"170 11 OFFCURVE",
"167 -21 OFFCURVE",
"163 -54 CURVE"
);
},
{
closed = 1;
nodes = (
"247 437 OFFCURVE",
"360 474 OFFCURVE",
"634 506 CURVE",
"634 530 LINE",
"379 545 OFFCURVE",
"236 580 OFFCURVE",
"149 613 CURVE",
"160 570 OFFCURVE",
"163 532 OFFCURVE",
"163 495 CURVE SMOOTH",
"163 461 OFFCURVE",
"160 429 OFFCURVE",
"156 397 CURVE"
);
}
);
width = 1020;
}
);
unicode = 103B4;
},
{
glyphname = uni103B5;
lastChange = "2017-02-01 21:19:02 +0000";
layers = (
{
layerId = UUID0;
paths = (
{
closed = 1;
nodes = (
"814 -105 LINE",
"700 79 OFFCURVE",
"622 209 OFFCURVE",
"578 293 CURVE",
"636 411 OFFCURVE",
"705 551 OFFCURVE",
"792 747 CURVE",
"771 757 LINE",
"626 551 OFFCURVE",
"468 366 OFFCURVE",
"385 281 CURVE",
"474 201 OFFCURVE",
"594 94 OFFCURVE",
"793 -120 CURVE"
);
},
{
closed = 1;
nodes = (
"550 -105 LINE",
"436 79 OFFCURVE",
"359 209 OFFCURVE",
"316 293 CURVE",
"375 411 OFFCURVE",
"442 551 OFFCURVE",
"529 747 CURVE",
"509 757 LINE",
"363 551 OFFCURVE",
"207 366 OFFCURVE",
"123 281 CURVE",
"212 201 OFFCURVE",
"332 94 OFFCURVE",
"531 -120 CURVE"
);
},
{
closed = 1;
nodes = (
"815 123 OFFCURVE",
"905 158 OFFCURVE",
"1088 190 CURVE",
"1088 214 LINE",
"918 231 OFFCURVE",
"809 262 OFFCURVE",
"753 297 CURVE",
"759 255 OFFCURVE",
"761 218 OFFCURVE",
"761 181 CURVE SMOOTH",
"761 147 OFFCURVE",
"759 114 OFFCURVE",
"757 81 CURVE"
);
},
{
closed = 1;
nodes = (
"815 384 OFFCURVE",
"905 421 OFFCURVE",
"1088 453 CURVE",
"1088 476 LINE",
"918 492 OFFCURVE",
"809 525 OFFCURVE",
"753 560 CURVE",
"759 518 OFFCURVE",
"761 480 OFFCURVE",
"761 444 CURVE SMOOTH",
"761 409 OFFCURVE",
"759 377 OFFCURVE",
"757 344 CURVE"
);
}
);
width = 1231;
}
);
unicode = 103B5;
},
{
glyphname = uni103B6;
lastChange = "2017-02-01 21:19:02 +0000";
layers = (
{
layerId = UUID0;
paths = (
{
closed = 1;
nodes = (
"957 -112 LINE",
"972 381 OFFCURVE",
"994 569 OFFCURVE",
"1040 736 CURVE",
"1003 728 OFFCURVE",
"966 724 OFFCURVE",
"930 724 CURVE SMOOTH",
"894 724 OFFCURVE",
"859 728 OFFCURVE",
"824 736 CURVE",
"879 538 OFFCURVE",
"897 407 OFFCURVE",
"931 -112 CURVE"
);
},
{
closed = 1;
nodes = (
"182 227 OFFCURVE",
"295 268 OFFCURVE",
"445 300 CURVE",
"445 321 LINE",
"305 341 OFFCURVE",
"174 374 OFFCURVE",
"130 406 CURVE",
"138 366 OFFCURVE",
"141 329 OFFCURVE",
"141 294 CURVE SMOOTH",
"141 259 OFFCURVE",
"138 225 OFFCURVE",
"134 190 CURVE"
);
},
{
closed = 1;
nodes = (
"546 -112 LINE",
"562 381 OFFCURVE",
"584 569 OFFCURVE",
"629 736 CURVE",
"592 728 OFFCURVE",
"555 724 OFFCURVE",
"519 724 CURVE SMOOTH",
"483 724 OFFCURVE",
"448 728 OFFCURVE",
"413 736 CURVE",
"468 538 OFFCURVE",
"486 407 OFFCURVE",
"520 -112 CURVE"
);
},
{
closed = 1;
nodes = (
"755 -107 LINE",
"770 259 OFFCURVE",
"793 398 OFFCURVE",
"838 520 CURVE",
"799 514 OFFCURVE",
"762 511 OFFCURVE",
"728 511 CURVE SMOOTH",
"692 511 OFFCURVE",
"657 514 OFFCURVE",
"623 520 CURVE",
"677 374 OFFCURVE",
"694 278 OFFCURVE",
"729 -107 CURVE"
);
}
);
width = 1204;
}
);
unicode = 103B6;
},
{
glyphname = uni103B7;
lastChange = "2017-02-01 21:19:02 +0000";
layers = (
{
layerId = UUID0;
paths = (
{
closed = 1;
nodes = (
"783 -105 LINE",
"667 79 OFFCURVE",
"590 209 OFFCURVE",
"546 293 CURVE",
"605 411 OFFCURVE",
"674 551 OFFCURVE",
"761 747 CURVE",
"740 757 LINE",
"594 551 OFFCURVE",
"437 366 OFFCURVE",
"354 281 CURVE",
"442 201 OFFCURVE",
"563 94 OFFCURVE",
"762 -120 CURVE"
);
},
{
closed = 1;
nodes = (
"297 -112 LINE",
"311 380 OFFCURVE",
"334 569 OFFCURVE",
"380 735 CURVE",
"342 728 OFFCURVE",
"305 724 OFFCURVE",
"269 724 CURVE SMOOTH",
"233 724 OFFCURVE",
"198 728 OFFCURVE",
"164 735 CURVE",
"219 538 OFFCURVE",
"237 406 OFFCURVE",
"271 -112 CURVE"
);
},
{
closed = 1;
nodes = (
"757 124 OFFCURVE",
"847 159 OFFCURVE",
"1030 192 CURVE",
"1030 215 LINE",
"858 232 OFFCURVE",
"749 263 OFFCURVE",
"693 298 CURVE",
"700 255 OFFCURVE",
"703 215 OFFCURVE",
"703 177 CURVE SMOOTH",
"703 145 OFFCURVE",
"701 114 OFFCURVE",
"698 83 CURVE"
);
},
{
closed = 1;
nodes = (
"757 363 OFFCURVE",
"847 398 OFFCURVE",
"1030 431 CURVE",
"1030 454 LINE",
"858 471 OFFCURVE",
"749 502 OFFCURVE",
"693 538 CURVE",
"700 494 OFFCURVE",
"703 455 OFFCURVE",
"703 417 CURVE SMOOTH",
"703 385 OFFCURVE",
"701 354 OFFCURVE",
"698 322 CURVE"
);
}
);
width = 1166;
}
);
unicode = 103B7;
},
{
glyphname = uni103B8;
lastChange = "2017-02-01 21:19:02 +0000";
layers = (
{
layerId = UUID0;
paths = (
{
closed = 1;
nodes = (
"947 -105 LINE",
"831 79 OFFCURVE",
"754 209 OFFCURVE",
"710 293 CURVE",
"769 411 OFFCURVE",
"838 551 OFFCURVE",
"925 747 CURVE",
"904 757 LINE",
"765 562 OFFCURVE",
"618 386 OFFCURVE",
"532 296 CURVE",
"409 316 OFFCURVE",
"329 349 OFFCURVE",
"286 379 CURVE",
"295 337 OFFCURVE",
"298 298 OFFCURVE",
"298 260 CURVE SMOOTH",
"298 227 OFFCURVE",
"295 195 OFFCURVE",
"292 163 CURVE",
"334 199 OFFCURVE",
"398 238 OFFCURVE",
"529 270 CURVE",
"616 191 OFFCURVE",
"735 85 OFFCURVE",
"926 -120 CURVE"
);
},
{
closed = 1;
nodes = (
"266 -28 OFFCURVE",
"413 8 OFFCURVE",
"667 41 CURVE",
"667 64 LINE",
"429 80 OFFCURVE",
"257 115 OFFCURVE",
"177 148 CURVE",
"186 104 OFFCURVE",
"189 63 OFFCURVE",
"189 25 CURVE SMOOTH",
"189 -7 OFFCURVE",
"187 -38 OFFCURVE",
"184 -68 CURVE"
);
},
{
closed = 1;
nodes = (
"262 430 OFFCURVE",
"405 465 OFFCURVE",
"660 499 CURVE",
"660 521 LINE",
"422 538 OFFCURVE",
"250 571 OFFCURVE",
"171 605 CURVE",
"180 565 OFFCURVE",
"184 528 OFFCURVE",
"184 493 CURVE SMOOTH",
"184 457 OFFCURVE",
"180 423 OFFCURVE",
"175 389 CURVE"
);
},
{
closed = 1;
nodes = (
"878 223 OFFCURVE",
"951 263 OFFCURVE",
"1100 296 CURVE",
"1100 317 LINE",
"961 336 OFFCURVE",
"871 370 OFFCURVE",
"826 401 CURVE",
"835 362 OFFCURVE",
"838 325 OFFCURVE",
"838 289 CURVE SMOOTH",
"838 254 OFFCURVE",
"835 220 OFFCURVE",
"830 185 CURVE"
);
}
);
width = 1237;
}
);
unicode = 103B8;
},
{
glyphname = uni103B9;
lastChange = "2017-02-01 21:19:02 +0000";
layers = (
{
layerId = UUID0;
paths = (
{
closed = 1;
nodes = (
"783 -105 LINE",
"667 79 OFFCURVE",
"591 209 OFFCURVE",
"546 293 CURVE",
"605 411 OFFCURVE",
"674 551 OFFCURVE",
"761 747 CURVE",
"740 757 LINE",
"595 551 OFFCURVE",
"437 366 OFFCURVE",
"354 281 CURVE",
"442 201 OFFCURVE",
"563 94 OFFCURVE",
"762 -120 CURVE"
);
},
{
closed = 1;
nodes = (
"297 -112 LINE",
"311 380 OFFCURVE",
"335 569 OFFCURVE",
"380 735 CURVE",
"343 728 OFFCURVE",
"306 724 OFFCURVE",
"269 724 CURVE SMOOTH",
"233 724 OFFCURVE",
"198 728 OFFCURVE",
"164 735 CURVE",
"219 538 OFFCURVE",
"237 406 OFFCURVE",
"271 -112 CURVE"
);
},
{
closed = 1;
nodes = (
"730 246 OFFCURVE",
"819 283 OFFCURVE",
"1003 315 CURVE",
"1003 339 LINE",
"831 354 OFFCURVE",
"722 387 OFFCURVE",
"666 422 CURVE",
"673 379 OFFCURVE",
"675 340 OFFCURVE",
"675 303 CURVE SMOOTH",
"675 270 OFFCURVE",
"673 238 OFFCURVE",
"671 206 CURVE"
);
}
);
width = 1131;
}
);
unicode = 103B9;
},
{
glyphname = uni103BA;
lastChange = "2017-02-01 21:19:02 +0000";
layers = (
{
layerId = UUID0;
paths = (
{
closed = 1;
nodes = (
"512 -112 LINE",
"526 381 OFFCURVE",
"550 569 OFFCURVE",
"595 736 CURVE",
"558 728 OFFCURVE",
"521 724 OFFCURVE",
"484 724 CURVE SMOOTH",
"448 724 OFFCURVE",
"413 728 OFFCURVE",
"379 736 CURVE",
"434 538 OFFCURVE",
"452 407 OFFCURVE",
"486 -112 CURVE"
);
},
{
closed = 1;
nodes = (
"188 224 OFFCURVE",
"264 259 OFFCURVE",
"410 296 CURVE",
"410 317 LINE",
"271 341 OFFCURVE",
"183 370 OFFCURVE",
"136 402 CURVE",
"144 363 OFFCURVE",
"147 327 OFFCURVE",
"147 292 CURVE SMOOTH",
"147 256 OFFCURVE",
"144 221 OFFCURVE",
"140 186 CURVE"
);
},
{
closed = 1;
nodes = (
"717 9 OFFCURVE",
"851 44 OFFCURVE",
"1107 77 CURVE",
"1107 100 LINE",
"868 117 OFFCURVE",
"709 151 OFFCURVE",
"630 183 CURVE",
"638 141 OFFCURVE",
"642 103 OFFCURVE",
"642 66 CURVE SMOOTH",
"642 33 OFFCURVE",
"639 0 OFFCURVE",
"635 -33 CURVE"
);
},
{
closed = 1;
nodes = (
"845 240 OFFCURVE",
"960 276 OFFCURVE",
"1201 309 CURVE",
"1201 333 LINE",
"977 348 OFFCURVE",
"836 382 OFFCURVE",
"760 416 CURVE",
"768 375 OFFCURVE",
"771 337 OFFCURVE",
"771 301 CURVE SMOOTH",
"771 266 OFFCURVE",
"768 233 OFFCURVE",
"764 200 CURVE"
);
},
{
closed = 1;
nodes = (
"713 465 OFFCURVE",
"843 502 OFFCURVE",
"1098 534 CURVE",
"1098 558 LINE",
"862 573 OFFCURVE",
"703 608 OFFCURVE",
"624 641 CURVE",
"633 601 OFFCURVE",
"636 564 OFFCURVE",
"636 528 CURVE SMOOTH",
"636 493 OFFCURVE",
"633 459 OFFCURVE",
"628 425 CURVE"
);
}
);
width = 1337;
}
);
unicode = 103BA;
},
{
glyphname = uni103BB;
lastChange = "2017-02-01 21:19:02 +0000";
layers = (
{
layerId = UUID0;
paths = (
{
closed = 1;
nodes = (
"572 314 LINE",
"575 358 OFFCURVE",
"579 399 OFFCURVE",
"584 437 CURVE",
"677 446 OFFCURVE",
"791 454 OFFCURVE",
"940 465 CURVE",
"940 491 LINE",
"801 496 OFFCURVE",
"688 501 OFFCURVE",
"593 508 CURVE",
"611 623 OFFCURVE",
"633 704 OFFCURVE",
"655 755 CURVE",
"615 747 OFFCURVE",
"579 743 OFFCURVE",
"543 743 CURVE SMOOTH",
"508 743 OFFCURVE",
"475 747 OFFCURVE",
"440 751 CURVE",
"467 696 OFFCURVE",
"492 627 OFFCURVE",
"515 514 CURVE",
"347 528 OFFCURVE",
"244 547 OFFCURVE",
"150 574 CURVE",
"159 537 OFFCURVE",
"163 500 OFFCURVE",
"163 464 CURVE SMOOTH",
"163 429 OFFCURVE",
"159 394 OFFCURVE",
"150 360 CURVE",
"266 394 OFFCURVE",
"358 413 OFFCURVE",
"531 431 CURVE",
"537 396 OFFCURVE",
"543 357 OFFCURVE",
"549 314 CURVE"
);
},
{
closed = 1;
nodes = (
"419 -137 LINE",
"436 102 OFFCURVE",
"470 261 OFFCURVE",
"502 340 CURVE",
"459 332 OFFCURVE",
"420 329 OFFCURVE",
"383 329 CURVE SMOOTH",
"350 329 OFFCURVE",
"318 331 OFFCURVE",
"286 335 CURVE",
"328 253 OFFCURVE",
"363 119 OFFCURVE",
"395 -137 CURVE"
);
},
{
closed = 1;
nodes = (
"754 -128 LINE",
"770 109 OFFCURVE",
"804 267 OFFCURVE",
"837 347 CURVE",
"798 338 OFFCURVE",
"763 334 OFFCURVE",
"728 334 CURVE SMOOTH",
"692 334 OFFCURVE",
"657 338 OFFCURVE",
"622 343 CURVE",
"662 257 OFFCURVE",
"698 127 OFFCURVE",
"731 -128 CURVE"
);
}
);
width = 1081;
}
);
unicode = 103BB;
},
{
glyphname = uni103BC;
lastChange = "2017-02-01 21:19:02 +0000";
layers = (
{
layerId = UUID0;
paths = (
{
closed = 1;
nodes = (
"782 -112 LINE",
"796 381 OFFCURVE",
"819 569 OFFCURVE",
"865 736 CURVE",
"827 728 OFFCURVE",
"790 724 OFFCURVE",
"754 724 CURVE SMOOTH",
"718 724 OFFCURVE",
"683 728 OFFCURVE",
"649 736 CURVE",
"704 538 OFFCURVE",
"721 407 OFFCURVE",
"756 -112 CURVE"
);
},
{
closed = 1;
nodes = (
"304 -5 OFFCURVE",
"434 30 OFFCURVE",
"689 64 CURVE",
"689 87 LINE",
"452 103 OFFCURVE",
"293 136 OFFCURVE",
"214 170 CURVE",
"223 131 OFFCURVE",
"226 94 OFFCURVE",
"226 59 CURVE SMOOTH",
"226 23 OFFCURVE",
"223 -11 OFFCURVE",
"218 -46 CURVE"
);
},
{
closed = 1;
nodes = (
"352 247 OFFCURVE",
"469 282 OFFCURVE",
"669 315 CURVE",
"669 338 LINE",
"482 354 OFFCURVE",
"343 388 OFFCURVE",
"284 421 CURVE",
"293 381 OFFCURVE",
"296 345 OFFCURVE",
"296 311 CURVE SMOOTH",
"296 275 OFFCURVE",
"293 241 OFFCURVE",
"288 206 CURVE"
);
},
{
closed = 1;
nodes = (
"254 487 OFFCURVE",
"384 524 OFFCURVE",
"639 556 CURVE",
"639 580 LINE",
"402 595 OFFCURVE",
"243 629 OFFCURVE",
"164 663 CURVE",
"173 623 OFFCURVE",
"176 587 OFFCURVE",
"176 552 CURVE SMOOTH",
"176 516 OFFCURVE",
"173 482 OFFCURVE",
"168 447 CURVE"
);
}
);
width = 1029;
}
);
unicode = 103BC;
},
{
glyphname = uni103BD;
lastChange = "2017-02-01 21:19:02 +0000";
layers = (
{
layerId = UUID0;
paths = (
{
closed = 1;
nodes = (
"899 -105 LINE",
"784 79 OFFCURVE",
"706 209 OFFCURVE",
"662 293 CURVE",
"721 411 OFFCURVE",
"790 551 OFFCURVE",
"877 747 CURVE",
"856 757 LINE",
"716 560 OFFCURVE",
"567 383 OFFCURVE",
"482 293 CURVE",
"307 312 OFFCURVE",
"195 345 OFFCURVE",
"137 376 CURVE",
"148 337 OFFCURVE",
"152 300 OFFCURVE",
"152 264 CURVE SMOOTH",
"152 229 OFFCURVE",
"148 195 OFFCURVE",
"142 161 CURVE",
"204 197 OFFCURVE",
"295 237 OFFCURVE",
"483 269 CURVE",
"570 190 OFFCURVE",
"688 83 OFFCURVE",
"878 -120 CURVE"
);
},
{
closed = 1;
nodes = (
"1160 -105 LINE",
"1046 79 OFFCURVE",
"968 209 OFFCURVE",
"925 293 CURVE",
"983 411 OFFCURVE",
"1051 551 OFFCURVE",
"1139 747 CURVE",
"1118 757 LINE",
"973 551 OFFCURVE",
"816 366 OFFCURVE",
"732 281 CURVE",
"821 201 OFFCURVE",
"940 94 OFFCURVE",
"1141 -120 CURVE"
);
}
);
width = 1269;
}
);
unicode = 103BD;
},
{
glyphname = uni103BE;
lastChange = "2017-02-01 21:19:02 +0000";
layers = (
{
layerId = UUID0;
paths = (
{
closed = 1;
nodes = (
"842 -112 LINE",
"856 381 OFFCURVE",
"880 569 OFFCURVE",
"925 736 CURVE",
"888 728 OFFCURVE",
"851 724 OFFCURVE",
"814 724 CURVE SMOOTH",
"778 724 OFFCURVE",
"743 728 OFFCURVE",
"709 736 CURVE",
"764 538 OFFCURVE",
"782 407 OFFCURVE",
"816 -112 CURVE"
);
},
{
closed = 1;
nodes = (
"364 12 OFFCURVE",
"481 47 OFFCURVE",
"720 79 CURVE",
"720 103 LINE",
"496 120 OFFCURVE",
"355 153 OFFCURVE",
"279 186 CURVE",
"288 145 OFFCURVE",
"291 107 OFFCURVE",
"291 72 CURVE SMOOTH",
"291 37 OFFCURVE",
"288 4 OFFCURVE",
"283 -30 CURVE"
);
},
{
closed = 1;
nodes = (
"234 237 OFFCURVE",
"362 272 OFFCURVE",
"618 305 CURVE",
"618 328 LINE",
"381 344 OFFCURVE",
"222 378 OFFCURVE",
"143 411 CURVE",
"152 371 OFFCURVE",
"156 334 OFFCURVE",
"156 299 CURVE SMOOTH",
"156 264 OFFCURVE",
"152 230 OFFCURVE",
"147 196 CURVE"
);
},
{
closed = 1;
nodes = (
"364 469 OFFCURVE",
"481 504 OFFCURVE",
"720 537 CURVE",
"720 560 LINE",
"496 576 OFFCURVE",
"355 611 OFFCURVE",
"279 643 CURVE",
"288 602 OFFCURVE",
"291 565 OFFCURVE",
"291 529 CURVE SMOOTH",
"291 495 OFFCURVE",
"288 462 OFFCURVE",
"283 428 CURVE"
);
}
);
width = 1089;
}
);
unicode = 103BE;
},
{
glyphname = uni103BF;
lastChange = "2017-02-01 21:19:02 +0000";
layers = (
{
layerId = UUID0;
paths = (
{
closed = 1;
nodes = (
"297 -112 LINE",
"311 381 OFFCURVE",
"334 569 OFFCURVE",
"380 736 CURVE",
"343 728 OFFCURVE",
"306 724 OFFCURVE",
"269 724 CURVE SMOOTH",
"233 724 OFFCURVE",
"198 728 OFFCURVE",
"164 736 CURVE",
"219 538 OFFCURVE",
"237 407 OFFCURVE",
"271 -112 CURVE"
);
},
{
closed = 1;
nodes = (
"502 9 OFFCURVE",
"636 44 OFFCURVE",
"892 77 CURVE",
"892 100 LINE",
"653 117 OFFCURVE",
"494 151 OFFCURVE",
"415 183 CURVE",
"423 141 OFFCURVE",
"427 103 OFFCURVE",
"427 66 CURVE SMOOTH",
"427 33 OFFCURVE",
"424 0 OFFCURVE",
"420 -33 CURVE"
);
},
{
closed = 1;
nodes = (
"630 240 OFFCURVE",
"745 276 OFFCURVE",
"986 309 CURVE",
"986 333 LINE",
"762 348 OFFCURVE",
"620 382 OFFCURVE",
"545 416 CURVE",
"554 376 OFFCURVE",
"557 339 OFFCURVE",
"557 303 CURVE SMOOTH",
"557 268 OFFCURVE",
"554 234 OFFCURVE",
"549 200 CURVE"
);
},
{
closed = 1;
nodes = (
"498 465 OFFCURVE",
"628 502 OFFCURVE",
"883 534 CURVE",
"883 558 LINE",
"646 573 OFFCURVE",
"488 608 OFFCURVE",
"409 641 CURVE",
"418 602 OFFCURVE",
"421 566 OFFCURVE",
"421 532 CURVE SMOOTH",
"421 495 OFFCURVE",
"417 460 OFFCURVE",
"412 425 CURVE"
);
}
);
width = 1122;
}
);
unicode = 103BF;
},
{
glyphname = uni103C0;
lastChange = "2017-02-01 21:19:02 +0000";
layers = (
{
layerId = UUID0;
paths = (
{
closed = 1;
nodes = (
"1008 -112 LINE",
"1022 381 OFFCURVE",
"1045 569 OFFCURVE",
"1091 736 CURVE",
"1054 728 OFFCURVE",
"1017 724 OFFCURVE",
"981 724 CURVE SMOOTH",
"945 724 OFFCURVE",
"910 728 OFFCURVE",
"875 736 CURVE",
"930 538 OFFCURVE",
"948 407 OFFCURVE",
"982 -112 CURVE"
);
},
{
closed = 1;
nodes = (
"297 -112 LINE",
"311 381 OFFCURVE",
"334 569 OFFCURVE",
"380 736 CURVE",
"342 728 OFFCURVE",
"305 724 OFFCURVE",
"269 724 CURVE SMOOTH",
"233 724 OFFCURVE",
"198 728 OFFCURVE",
"164 736 CURVE",
"219 538 OFFCURVE",
"237 407 OFFCURVE",
"271 -112 CURVE"
);
},
{
closed = 1;
nodes = (
"427 251 OFFCURVE",
"496 290 OFFCURVE",
"640 323 CURVE",
"640 289 OFFCURVE",
"637 256 OFFCURVE",
"633 224 CURVE",
"681 260 OFFCURVE",
"754 300 OFFCURVE",
"904 334 CURVE",
"904 354 LINE",
"765 373 OFFCURVE",
"675 407 OFFCURVE",
"629 438 CURVE",
"636 406 OFFCURVE",
"639 376 OFFCURVE",
"640 347 CURVE",
"506 366 OFFCURVE",
"420 399 OFFCURVE",
"376 430 CURVE",
"384 391 OFFCURVE",
"387 354 OFFCURVE",
"387 318 CURVE SMOOTH",
"387 283 OFFCURVE",
"384 249 OFFCURVE",
"380 214 CURVE"
);
}
);
width = 1255;
}
);
unicode = 103C0;
},
{
glyphname = uni103C1;
lastChange = "2017-02-01 21:19:02 +0000";
layers = (
{
layerId = UUID0;
paths = (
{
closed = 1;
nodes = (
"917 -109 LINE",
"801 27 OFFCURVE",
"722 123 OFFCURVE",
"679 186 CURVE",
"738 273 OFFCURVE",
"808 376 OFFCURVE",
"895 520 CURVE",
"877 535 LINE",
"731 378 OFFCURVE",
"562 239 OFFCURVE",
"478 177 CURVE",
"567 118 OFFCURVE",
"700 35 OFFCURVE",
"899 -128 CURVE"
);
},
{
closed = 1;
nodes = (
"598 -109 LINE",
"484 27 OFFCURVE",
"406 123 OFFCURVE",
"362 186 CURVE",
"420 273 OFFCURVE",
"491 376 OFFCURVE",
"578 520 CURVE",
"558 535 LINE",
"414 378 OFFCURVE",
"245 239 OFFCURVE",
"162 177 CURVE",
"250 118 OFFCURVE",
"383 35 OFFCURVE",
"582 -128 CURVE"
);
},
{
closed = 1;
nodes = (
"353 582 OFFCURVE",
"484 599 OFFCURVE",
"1003 634 CURVE",
"1003 660 LINE",
"510 675 OFFCURVE",
"322 698 OFFCURVE",
"155 743 CURVE",
"163 706 OFFCURVE",
"167 669 OFFCURVE",
"167 633 CURVE SMOOTH",
"167 597 OFFCURVE",
"163 562 OFFCURVE",
"155 528 CURVE"
);
}
);
width = 1139;
}
);
unicode = 103C1;
},
{
glyphname = uni103C2;
lastChange = "2017-02-01 21:19:02 +0000";
layers = (
{
layerId = UUID0;
paths = (
{
closed = 1;
nodes = (
"272 366 OFFCURVE",
"426 401 OFFCURVE",
"701 433 CURVE",
"701 457 LINE",
"445 474 OFFCURVE",
"261 507 OFFCURVE",
"174 540 CURVE",
"185 497 OFFCURVE",
"188 459 OFFCURVE",
"188 422 CURVE SMOOTH",
"188 389 OFFCURVE",
"185 357 OFFCURVE",
"181 324 CURVE"
);
},
{
closed = 1;
nodes = (
"345 -107 LINE",
"359 124 OFFCURVE",
"386 231 OFFCURVE",
"428 312 CURVE",
"391 307 OFFCURVE",
"357 306 OFFCURVE",
"324 306 CURVE SMOOTH",
"286 306 OFFCURVE",
"249 308 OFFCURVE",
"212 312 CURVE",
"263 214 OFFCURVE",
"283 136 OFFCURVE",
"319 -107 CURVE"
);
},
{
closed = 1;
nodes = (
"592 -107 LINE",
"606 124 OFFCURVE",
"633 231 OFFCURVE",
"675 312 CURVE",
"638 307 OFFCURVE",
"604 306 OFFCURVE",
"571 306 CURVE SMOOTH",
"533 306 OFFCURVE",
"496 308 OFFCURVE",
"459 312 CURVE",
"510 214 OFFCURVE",
"530 136 OFFCURVE",
"566 -107 CURVE"
);
},
{
closed = 1;
nodes = (
"272 606 OFFCURVE",
"426 641 OFFCURVE",
"701 674 CURVE",
"701 697 LINE",
"445 714 OFFCURVE",
"261 748 OFFCURVE",
"174 780 CURVE",
"185 738 OFFCURVE",
"188 700 OFFCURVE",
"188 663 CURVE SMOOTH",
"188 630 OFFCURVE",
"185 598 OFFCURVE",
"181 565 CURVE"
);
}
);
width = 867;
}
);
unicode = 103C2;
},
{
glyphname = uni103C3;
lastChange = "2017-02-01 21:19:02 +0000";
layers = (
{
layerId = UUID0;
paths = (
{
closed = 1;
nodes = (
"551 -105 LINE",
"436 79 OFFCURVE",
"358 209 OFFCURVE",
"316 293 CURVE",
"374 411 OFFCURVE",
"442 551 OFFCURVE",
"529 747 CURVE",
"509 757 LINE",
"362 551 OFFCURVE",
"206 366 OFFCURVE",
"122 281 CURVE",
"212 201 OFFCURVE",
"331 94 OFFCURVE",
"530 -120 CURVE"
);
},
{
closed = 1;
nodes = (
"568 62 OFFCURVE",
"639 102 OFFCURVE",
"790 135 CURVE",
"790 155 LINE",
"651 175 OFFCURVE",
"563 209 OFFCURVE",
"516 240 CURVE",
"524 201 OFFCURVE",
"526 164 OFFCURVE",
"526 128 CURVE SMOOTH",
"526 93 OFFCURVE",
"524 59 OFFCURVE",
"520 24 CURVE"
);
},
{
closed = 1;
nodes = (
"568 370 OFFCURVE",
"639 410 OFFCURVE",
"790 444 CURVE",
"790 463 LINE",
"651 483 OFFCURVE",
"563 517 OFFCURVE",
"516 548 CURVE",
"524 509 OFFCURVE",
"526 472 OFFCURVE",
"526 437 CURVE SMOOTH",
"526 401 OFFCURVE",
"524 367 OFFCURVE",
"520 333 CURVE"
);
},
{
closed = 1;
nodes = (
"1180 -105 LINE",
"1066 79 OFFCURVE",
"989 209 OFFCURVE",
"946 293 CURVE",
"1005 411 OFFCURVE",
"1072 551 OFFCURVE",
"1159 747 CURVE",
"1138 757 LINE",
"993 551 OFFCURVE",
"837 366 OFFCURVE",
"754 281 CURVE",
"842 201 OFFCURVE",
"962 94 OFFCURVE",
"1162 -120 CURVE"
);
}
);
width = 1289;
}
);
unicode = 103C3;
},
{
glyphname = uni103C8;
lastChange = "2017-02-01 21:19:02 +0000";
layers = (
{
layerId = UUID0;
paths = (
{
closed = 1;
nodes = (
"1365 -105 LINE",
"1250 79 OFFCURVE",
"1172 209 OFFCURVE",
"1128 293 CURVE",
"1187 411 OFFCURVE",
"1256 551 OFFCURVE",
"1343 747 CURVE",
"1322 757 LINE",
"1176 551 OFFCURVE",
"1019 366 OFFCURVE",
"936 281 CURVE",
"1025 201 OFFCURVE",
"1145 94 OFFCURVE",
"1344 -120 CURVE"
);
},
{
closed = 1;
nodes = (
"203 58 OFFCURVE",
"274 95 OFFCURVE",
"417 127 CURVE",
"417 93 OFFCURVE",
"415 60 OFFCURVE",
"413 27 CURVE",
"472 68 OFFCURVE",
"576 103 OFFCURVE",
"759 136 CURVE",
"759 159 LINE",
"589 176 OFFCURVE",
"465 207 OFFCURVE",
"409 242 CURVE",
"414 210 OFFCURVE",
"416 180 OFFCURVE",
"417 151 CURVE",
"283 172 OFFCURVE",
"198 206 OFFCURVE",
"153 237 CURVE",
"161 198 OFFCURVE",
"164 161 OFFCURVE",
"164 125 CURVE SMOOTH",
"164 90 OFFCURVE",
"161 56 OFFCURVE",
"157 21 CURVE"
);
},
{
closed = 1;
nodes = (
"203 410 OFFCURVE",
"274 448 OFFCURVE",
"417 481 CURVE",
"417 446 OFFCURVE",
"415 413 OFFCURVE",
"413 380 CURVE",
"472 422 OFFCURVE",
"576 457 OFFCURVE",
"759 489 CURVE",
"759 513 LINE",
"589 530 OFFCURVE",
"465 561 OFFCURVE",
"409 596 CURVE",
"414 564 OFFCURVE",
"416 534 OFFCURVE",
"417 505 CURVE",
"283 525 OFFCURVE",
"198 560 OFFCURVE",
"153 591 CURVE",
"161 552 OFFCURVE",
"164 515 OFFCURVE",
"164 479 CURVE SMOOTH",
"164 444 OFFCURVE",
"161 410 OFFCURVE",
"157 375 CURVE"
);
},
{
closed = 1;
nodes = (
"879 -112 LINE",
"894 380 OFFCURVE",
"918 569 OFFCURVE",
"962 735 CURVE",
"924 728 OFFCURVE",
"887 724 OFFCURVE",
"851 724 CURVE SMOOTH",
"816 724 OFFCURVE",
"781 728 OFFCURVE",
"746 735 CURVE",
"801 538 OFFCURVE",
"819 406 OFFCURVE",
"853 -112 CURVE"
);
}
);
width = 1474;
}
);
unicode = 103C8;
},
{
glyphname = uni103C9;
lastChange = "2017-02-01 21:19:02 +0000";
layers = (
{
layerId = UUID0;
paths = (
{
closed = 1;
nodes = (
"202 342 OFFCURVE",
"273 378 OFFCURVE",
"416 409 CURVE",
"416 374 OFFCURVE",
"413 341 OFFCURVE",
"410 308 CURVE",
"457 342 OFFCURVE",
"526 378 OFFCURVE",
"671 410 CURVE",
"671 376 OFFCURVE",
"669 344 OFFCURVE",
"666 313 CURVE",
"726 352 OFFCURVE",
"828 387 OFFCURVE",
"1012 419 CURVE",
"1012 442 LINE",
"841 456 OFFCURVE",
"718 488 OFFCURVE",
"662 521 CURVE",
"667 490 OFFCURVE",
"670 461 OFFCURVE",
"671 433 CURVE",
"537 453 OFFCURVE",
"452 486 OFFCURVE",
"406 516 CURVE",
"411 487 OFFCURVE",
"414 460 OFFCURVE",
"415 434 CURVE",
"283 453 OFFCURVE",
"197 487 OFFCURVE",
"154 516 CURVE",
"161 478 OFFCURVE",
"164 443 OFFCURVE",
"164 410 CURVE SMOOTH",
"164 375 OFFCURVE",
"161 341 OFFCURVE",
"157 308 CURVE"
);
},
{
closed = 1;
nodes = (
"457 -107 OFFCURVE",
"526 -70 OFFCURVE",
"671 -40 CURVE",
"671 -73 OFFCURVE",
"669 -104 OFFCURVE",
"666 -136 CURVE",
"726 -96 OFFCURVE",
"828 -62 OFFCURVE",
"1012 -31 CURVE",
"1012 -8 LINE",
"841 8 OFFCURVE",
"718 39 OFFCURVE",
"662 73 CURVE",
"667 41 OFFCURVE",
"670 12 OFFCURVE",
"671 -16 CURVE",
"537 1 OFFCURVE",
"452 38 OFFCURVE",
"406 68 CURVE",
"414 30 OFFCURVE",
"416 -6 OFFCURVE",
"416 -41 CURVE SMOOTH",
"416 -75 OFFCURVE",
"414 -109 OFFCURVE",
"410 -142 CURVE"
);
},
{
closed = 1;
nodes = (
"203 119 OFFCURVE",
"273 154 OFFCURVE",
"416 184 CURVE",
"416 150 OFFCURVE",
"413 117 OFFCURVE",
"410 83 CURVE",
"457 119 OFFCURVE",
"526 154 OFFCURVE",
"671 185 CURVE",
"671 152 OFFCURVE",
"669 120 OFFCURVE",
"666 88 CURVE",
"726 127 OFFCURVE",
"828 163 OFFCURVE",
"1012 194 CURVE",
"1012 216 LINE",
"841 233 OFFCURVE",
"718 263 OFFCURVE",
"662 296 CURVE",
"667 265 OFFCURVE",
"670 236 OFFCURVE",
"671 208 CURVE",
"537 228 OFFCURVE",
"452 261 OFFCURVE",
"406 291 CURVE",
"411 262 OFFCURVE",
"415 235 OFFCURVE",
"416 209 CURVE",
"284 228 OFFCURVE",
"197 262 OFFCURVE",
"154 291 CURVE",
"161 254 OFFCURVE",
"164 219 OFFCURVE",
"164 186 CURVE SMOOTH",
"164 151 OFFCURVE",
"161 117 OFFCURVE",
"157 83 CURVE"
);
},
{
closed = 1;
nodes = (
"457 568 OFFCURVE",
"526 605 OFFCURVE",
"671 636 CURVE",
"671 603 OFFCURVE",
"669 571 OFFCURVE",
"666 538 CURVE",
"726 580 OFFCURVE",
"828 614 OFFCURVE",
"1012 645 CURVE",
"1012 667 LINE",
"841 683 OFFCURVE",
"718 712 OFFCURVE",
"662 748 CURVE",
"667 716 OFFCURVE",
"670 687 OFFCURVE",
"671 659 CURVE",
"537 678 OFFCURVE",
"452 711 OFFCURVE",
"406 744 CURVE",
"414 705 OFFCURVE",
"416 669 OFFCURVE",
"416 634 CURVE SMOOTH",
"416 600 OFFCURVE",
"414 567 OFFCURVE",
"410 534 CURVE"
);
},
{
closed = 1;
nodes = (
"1131 -112 LINE",
"1147 381 OFFCURVE",
"1170 569 OFFCURVE",
"1214 736 CURVE",
"1177 728 OFFCURVE",
"1140 724 OFFCURVE",
"1104 724 CURVE SMOOTH",
"1069 724 OFFCURVE",
"1034 728 OFFCURVE",
"1000 736 CURVE",
"1054 538 OFFCURVE",
"1071 407 OFFCURVE",
"1105 -112 CURVE"
);
}
);
width = 1378;
}
);
unicode = 103C9;
},
{
glyphname = uni103CA;
lastChange = "2017-02-01 21:19:02 +0000";
layers = (
{
layerId = UUID0;
paths = (
{
closed = 1;
nodes = (
"1615 -104 LINE",
"1500 79 OFFCURVE",
"1422 209 OFFCURVE",
"1378 294 CURVE",
"1438 412 OFFCURVE",
"1505 551 OFFCURVE",
"1592 747 CURVE",
"1573 758 LINE",
"1426 551 OFFCURVE",
"1269 366 OFFCURVE",
"1186 282 CURVE",
"1275 201 OFFCURVE",
"1395 95 OFFCURVE",
"1594 -120 CURVE"
);
},
{
closed = 1;
nodes = (
"457 -107 OFFCURVE",
"526 -70 OFFCURVE",
"671 -40 CURVE",
"671 -73 OFFCURVE",
"669 -105 OFFCURVE",
"666 -137 CURVE",
"725 -96 OFFCURVE",
"828 -63 OFFCURVE",
"1011 -31 CURVE",
"1011 -8 LINE",
"841 8 OFFCURVE",
"718 39 OFFCURVE",
"662 73 CURVE",
"667 41 OFFCURVE",
"670 12 OFFCURVE",
"671 -16 CURVE",
"537 1 OFFCURVE",
"451 38 OFFCURVE",
"406 67 CURVE",
"413 30 OFFCURVE",
"416 -5 OFFCURVE",
"416 -39 CURVE SMOOTH",
"416 -74 OFFCURVE",
"413 -108 OFFCURVE",
"409 -142 CURVE"
);
},
{
closed = 1;
nodes = (
"202 118 OFFCURVE",
"273 154 OFFCURVE",
"416 184 CURVE",
"416 150 OFFCURVE",
"413 116 OFFCURVE",
"409 83 CURVE",
"457 118 OFFCURVE",
"526 154 OFFCURVE",
"671 185 CURVE",
"671 152 OFFCURVE",
"669 120 OFFCURVE",
"666 88 CURVE",
"725 127 OFFCURVE",
"828 162 OFFCURVE",
"1011 194 CURVE",
"1011 216 LINE",
"841 233 OFFCURVE",
"718 262 OFFCURVE",
"662 296 CURVE",
"667 265 OFFCURVE",
"670 236 OFFCURVE",
"671 208 CURVE",
"537 228 OFFCURVE",
"451 261 OFFCURVE",
"406 291 CURVE",
"411 262 OFFCURVE",
"414 235 OFFCURVE",
"415 209 CURVE",
"283 228 OFFCURVE",
"197 262 OFFCURVE",
"153 291 CURVE",
"161 253 OFFCURVE",
"164 217 OFFCURVE",
"164 183 CURVE SMOOTH",
"164 149 OFFCURVE",
"161 116 OFFCURVE",
"157 83 CURVE"
);
},
{
closed = 1;
nodes = (
"202 342 OFFCURVE",
"273 377 OFFCURVE",
"416 409 CURVE",
"416 374 OFFCURVE",
"413 341 OFFCURVE",
"409 308 CURVE",
"457 342 OFFCURVE",
"526 377 OFFCURVE",
"671 410 CURVE",
"671 376 OFFCURVE",
"669 344 OFFCURVE",
"666 313 CURVE",
"725 352 OFFCURVE",
"828 387 OFFCURVE",
"1011 418 CURVE",
"1011 442 LINE",
"841 456 OFFCURVE",
"718 487 OFFCURVE",
"662 521 CURVE",
"667 490 OFFCURVE",
"670 460 OFFCURVE",
"671 432 CURVE",
"537 452 OFFCURVE",
"451 486 OFFCURVE",
"406 516 CURVE",
"411 487 OFFCURVE",
"415 459 OFFCURVE",
"416 433 CURVE",
"284 453 OFFCURVE",
"197 487 OFFCURVE",
"153 516 CURVE",
"161 478 OFFCURVE",
"164 442 OFFCURVE",
"164 408 CURVE SMOOTH",
"164 373 OFFCURVE",
"161 341 OFFCURVE",
"157 308 CURVE"
);
},
{
closed = 1;
nodes = (
"457 568 OFFCURVE",
"526 605 OFFCURVE",
"671 636 CURVE",
"671 603 OFFCURVE",
"669 571 OFFCURVE",
"666 538 CURVE",
"725 580 OFFCURVE",
"828 613 OFFCURVE",
"1011 645 CURVE",
"1011 667 LINE",
"841 682 OFFCURVE",
"718 712 OFFCURVE",
"662 747 CURVE",
"667 716 OFFCURVE",
"670 687 OFFCURVE",
"671 659 CURVE",
"537 678 OFFCURVE",
"451 711 OFFCURVE",
"406 743 CURVE",
"413 705 OFFCURVE",
"416 670 OFFCURVE",
"416 636 CURVE SMOOTH",
"416 601 OFFCURVE",
"413 567 OFFCURVE",
"409 534 CURVE"
);
},
{
closed = 1;
nodes = (
"1131 -112 LINE",
"1147 381 OFFCURVE",
"1170 569 OFFCURVE",
"1214 736 CURVE",
"1177 728 OFFCURVE",
"1140 724 OFFCURVE",
"1104 724 CURVE SMOOTH",
"1069 724 OFFCURVE",
"1034 728 OFFCURVE",
"1000 736 CURVE",
"1054 538 OFFCURVE",
"1071 407 OFFCURVE",
"1105 -112 CURVE"
);
}
);
width = 1724;
}
);
unicode = 103CA;
},
{
glyphname = uni103CB;
lastChange = "2017-02-01 21:19:02 +0000";
layers = (
{
layerId = UUID0;
paths = (
{
closed = 1;
nodes = (
"1511 -105 LINE",
"1396 79 OFFCURVE",
"1318 209 OFFCURVE",
"1275 293 CURVE",
"1334 411 OFFCURVE",
"1402 551 OFFCURVE",
"1490 747 CURVE",
"1469 757 LINE",
"1322 551 OFFCURVE",
"1166 366 OFFCURVE",
"1083 281 CURVE",
"1171 201 OFFCURVE",
"1291 94 OFFCURVE",
"1491 -120 CURVE"
);
},
{
closed = 1;
nodes = (
"207 110 OFFCURVE",
"297 146 OFFCURVE",
"480 179 CURVE",
"480 202 LINE",
"308 218 OFFCURVE",
"199 250 OFFCURVE",
"143 285 CURVE",
"150 243 OFFCURVE",
"153 204 OFFCURVE",
"153 167 CURVE SMOOTH",
"153 134 OFFCURVE",
"150 102 OFFCURVE",
"147 70 CURVE"
);
},
{
closed = 1;
nodes = (
"207 349 OFFCURVE",
"297 384 OFFCURVE",
"480 418 CURVE",
"480 441 LINE",
"308 457 OFFCURVE",
"199 488 OFFCURVE",
"143 525 CURVE",
"150 482 OFFCURVE",
"153 443 OFFCURVE",
"153 406 CURVE SMOOTH",
"153 373 OFFCURVE",
"150 341 OFFCURVE",
"147 309 CURVE"
);
},
{
closed = 1;
nodes = (
"882 -105 LINE",
"767 79 OFFCURVE",
"689 209 OFFCURVE",
"646 293 CURVE",
"705 411 OFFCURVE",
"772 551 OFFCURVE",
"859 747 CURVE",
"840 757 LINE",
"693 551 OFFCURVE",
"537 366 OFFCURVE",
"454 281 CURVE",
"542 201 OFFCURVE",
"662 94 OFFCURVE",
"862 -120 CURVE"
);
},
{
closed = 1;
nodes = (
"1026 -112 LINE",
"1040 380 OFFCURVE",
"1064 569 OFFCURVE",
"1109 735 CURVE",
"1072 728 OFFCURVE",
"1035 724 OFFCURVE",
"998 724 CURVE SMOOTH",
"962 724 OFFCURVE",
"927 728 OFFCURVE",
"893 735 CURVE",
"948 538 OFFCURVE",
"965 406 OFFCURVE",
"1000 -112 CURVE"
);
}
);
width = 1620;
}
);
unicode = 103CB;
},
{
glyphname = uni103CC;
lastChange = "2017-02-01 21:19:02 +0000";
layers = (
{
layerId = UUID0;
paths = (
{
closed = 1;
nodes = (
"788 -112 LINE",
"802 381 OFFCURVE",
"825 569 OFFCURVE",
"871 736 CURVE",
"834 728 OFFCURVE",
"797 724 OFFCURVE",
"760 724 CURVE SMOOTH",
"724 724 OFFCURVE",
"689 728 OFFCURVE",
"655 736 CURVE",
"710 538 OFFCURVE",
"728 407 OFFCURVE",
"762 -112 CURVE"
);
},
{
closed = 1;
nodes = (
"415 -131 LINE",
"377 -61 OFFCURVE",
"322 26 OFFCURVE",
"290 69 CURVE",
"325 126 OFFCURVE",
"364 204 OFFCURVE",
"403 287 CURVE",
"381 299 LINE",
"300 212 OFFCURVE",
"195 118 OFFCURVE",
"126 65 CURVE",
"201 18 OFFCURVE",
"312 -69 OFFCURVE",
"394 -147 CURVE"
);
},
{
closed = 1;
nodes = (
"645 -131 LINE",
"606 -61 OFFCURVE",
"551 26 OFFCURVE",
"519 69 CURVE",
"554 126 OFFCURVE",
"594 204 OFFCURVE",
"632 287 CURVE",
"610 299 LINE",
"529 212 OFFCURVE",
"425 118 OFFCURVE",
"355 65 CURVE",
"432 18 OFFCURVE",
"542 -69 OFFCURVE",
"624 -147 CURVE"
);
},
{
closed = 1;
nodes = (
"415 339 LINE",
"377 409 OFFCURVE",
"322 498 OFFCURVE",
"290 539 CURVE",
"325 597 OFFCURVE",
"364 675 OFFCURVE",
"403 758 CURVE",
"381 771 LINE",
"300 682 OFFCURVE",
"195 589 OFFCURVE",
"126 536 CURVE",
"201 489 OFFCURVE",
"312 402 OFFCURVE",
"394 324 CURVE"
);
},
{
closed = 1;
nodes = (
"645 339 LINE",
"606 409 OFFCURVE",
"551 498 OFFCURVE",
"519 539 CURVE",
"554 597 OFFCURVE",
"594 675 OFFCURVE",
"632 758 CURVE",
"610 771 LINE",
"529 682 OFFCURVE",
"425 589 OFFCURVE",
"355 536 CURVE",
"432 489 OFFCURVE",
"542 402 OFFCURVE",
"624 324 CURVE"
);
}
);
width = 1035;
}
);
unicode = 103CC;
},
{
glyphname = uni103CD;
lastChange = "2017-02-01 21:19:02 +0000";
layers = (
{
layerId = UUID0;
paths = (
{
closed = 1;
nodes = (
"1041 -112 LINE",
"1057 381 OFFCURVE",
"1080 569 OFFCURVE",
"1124 736 CURVE",
"1087 728 OFFCURVE",
"1050 724 OFFCURVE",
"1014 724 CURVE SMOOTH",
"978 724 OFFCURVE",
"943 728 OFFCURVE",
"908 736 CURVE",
"963 538 OFFCURVE",
"981 407 OFFCURVE",
"1015 -112 CURVE"
);
},
{
closed = 1;
nodes = (
"414 -131 LINE",
"377 -61 OFFCURVE",
"322 26 OFFCURVE",
"290 69 CURVE",
"325 126 OFFCURVE",
"364 204 OFFCURVE",
"403 287 CURVE",
"381 299 LINE",
"300 212 OFFCURVE",
"195 118 OFFCURVE",
"126 65 CURVE",
"201 18 OFFCURVE",
"312 -69 OFFCURVE",
"394 -147 CURVE"
);
},
{
closed = 1;
nodes = (
"644 -131 LINE",
"605 -61 OFFCURVE",
"551 26 OFFCURVE",
"518 69 CURVE",
"553 126 OFFCURVE",
"594 204 OFFCURVE",
"631 287 CURVE",
"609 299 LINE",
"529 212 OFFCURVE",
"425 118 OFFCURVE",
"355 65 CURVE",
"431 18 OFFCURVE",
"542 -69 OFFCURVE",
"624 -147 CURVE"
);
},
{
closed = 1;
nodes = (
"414 339 LINE",
"377 409 OFFCURVE",
"322 498 OFFCURVE",
"290 539 CURVE",
"325 597 OFFCURVE",
"364 675 OFFCURVE",
"403 758 CURVE",
"381 771 LINE",
"300 682 OFFCURVE",
"195 589 OFFCURVE",
"126 536 CURVE",
"201 489 OFFCURVE",
"312 402 OFFCURVE",
"394 324 CURVE"
);
},
{
closed = 1;
nodes = (
"644 339 LINE",
"605 409 OFFCURVE",
"551 498 OFFCURVE",
"518 539 CURVE",
"553 597 OFFCURVE",
"594 675 OFFCURVE",
"631 758 CURVE",
"609 771 LINE",
"529 682 OFFCURVE",
"425 589 OFFCURVE",
"355 536 CURVE",
"431 489 OFFCURVE",
"542 402 OFFCURVE",
"624 324 CURVE"
);
},
{
closed = 1;
nodes = (
"787 -112 LINE",
"802 381 OFFCURVE",
"825 569 OFFCURVE",
"871 736 CURVE",
"833 728 OFFCURVE",
"796 724 OFFCURVE",
"760 724 CURVE SMOOTH",
"724 724 OFFCURVE",
"689 728 OFFCURVE",
"655 736 CURVE",
"709 538 OFFCURVE",
"728 407 OFFCURVE",
"761 -112 CURVE"
);
}
);
width = 1288;
}
);
unicode = 103CD;
},
{
glyphname = uni103CE;
lastChange = "2017-02-01 21:19:02 +0000";
layers = (
{
layerId = UUID0;
paths = (
{
closed = 1;
nodes = (
"1221 -105 LINE",
"1105 79 OFFCURVE",
"1030 209 OFFCURVE",
"985 293 CURVE",
"1044 411 OFFCURVE",
"1113 551 OFFCURVE",
"1200 747 CURVE",
"1178 757 LINE",
"1034 551 OFFCURVE",
"876 366 OFFCURVE",
"793 281 CURVE",
"881 201 OFFCURVE",
"1002 94 OFFCURVE",
"1201 -120 CURVE"
);
},
{
closed = 1;
nodes = (
"188 188 OFFCURVE",
"258 229 OFFCURVE",
"402 264 CURVE",
"402 227 OFFCURVE",
"400 192 OFFCURVE",
"398 157 CURVE",
"456 201 OFFCURVE",
"559 239 OFFCURVE",
"742 272 CURVE",
"742 297 LINE",
"572 315 OFFCURVE",
"449 350 OFFCURVE",
"393 389 CURVE",
"398 354 OFFCURVE",
"401 321 OFFCURVE",
"402 289 CURVE",
"268 309 OFFCURVE",
"182 349 OFFCURVE",
"137 383 CURVE",
"145 342 OFFCURVE",
"148 304 OFFCURVE",
"148 267 CURVE SMOOTH",
"148 227 OFFCURVE",
"144 189 OFFCURVE",
"140 150 CURVE"
);
},
{
closed = 1;
nodes = (
"1483 -105 LINE",
"1369 79 OFFCURVE",
"1291 209 OFFCURVE",
"1248 293 CURVE",
"1307 411 OFFCURVE",
"1374 551 OFFCURVE",
"1463 747 CURVE",
"1442 757 LINE",
"1295 551 OFFCURVE",
"1139 366 OFFCURVE",
"1056 281 CURVE",
"1144 201 OFFCURVE",
"1264 94 OFFCURVE",
"1464 -120 CURVE"
);
}
);
width = 1593;
}
);
unicode = 103CE;
},
{
glyphname = uni103CF;
lastChange = "2017-02-01 21:19:02 +0000";
layers = (
{
layerId = UUID0;
paths = (
{
closed = 1;
nodes = (
"1027 -110 LINE",
"952 7 OFFCURVE",
"891 110 OFFCURVE",
"854 166 CURVE",
"899 247 OFFCURVE",
"951 352 OFFCURVE",
"1012 479 CURVE",
"989 492 LINE",
"876 352 OFFCURVE",
"746 225 OFFCURVE",
"681 166 CURVE",
"765 98 OFFCURVE",
"859 13 OFFCURVE",
"1006 -126 CURVE"
);
},
{
closed = 1;
nodes = (
"456 -110 LINE",
"382 7 OFFCURVE",
"321 110 OFFCURVE",
"283 166 CURVE",
"328 247 OFFCURVE",
"380 352 OFFCURVE",
"442 479 CURVE",
"418 492 LINE",
"305 352 OFFCURVE",
"175 225 OFFCURVE",
"110 166 CURVE",
"195 98 OFFCURVE",
"289 13 OFFCURVE",
"435 -126 CURVE"
);
},
{
closed = 1;
nodes = (
"743 -110 LINE",
"670 7 OFFCURVE",
"608 110 OFFCURVE",
"572 166 CURVE",
"617 247 OFFCURVE",
"668 352 OFFCURVE",
"730 479 CURVE",
"707 492 LINE",
"594 352 OFFCURVE",
"464 225 OFFCURVE",
"399 166 CURVE",
"483 98 OFFCURVE",
"577 13 OFFCURVE",
"722 -126 CURVE"
);
},
{
closed = 1;
nodes = (
"220 572 OFFCURVE",
"290 609 OFFCURVE",
"433 640 CURVE",
"433 605 OFFCURVE",
"430 571 OFFCURVE",
"426 538 CURVE",
"472 572 OFFCURVE",
"543 609 OFFCURVE",
"686 641 CURVE",
"686 607 OFFCURVE",
"684 575 OFFCURVE",
"682 543 CURVE",
"741 583 OFFCURVE",
"845 617 OFFCURVE",
"1028 648 CURVE",
"1028 672 LINE",
"856 687 OFFCURVE",
"734 719 OFFCURVE",
"678 752 CURVE",
"683 721 OFFCURVE",
"685 692 OFFCURVE",
"686 664 CURVE",
"552 683 OFFCURVE",
"467 717 OFFCURVE",
"421 747 CURVE",
"427 718 OFFCURVE",
"430 691 OFFCURVE",
"432 664 CURVE",
"299 683 OFFCURVE",
"214 718 OFFCURVE",
"169 747 CURVE",
"177 709 OFFCURVE",
"180 673 OFFCURVE",
"180 638 CURVE SMOOTH",
"180 604 OFFCURVE",
"177 571 OFFCURVE",
"172 538 CURVE"
);
}
);
width = 1147;
}
);
unicode = 103CF;
},
{
glyphname = uni103D0;
lastChange = "2017-02-01 21:19:02 +0000";
layers = (
{
layerId = UUID0;
paths = (
{
closed = 1;
nodes = (
"719 -30 LINE",
"458 388 OFFCURVE",
"373 557 OFFCURVE",
"317 722 CURVE",
"264 667 OFFCURVE",
"204 626 OFFCURVE",
"138 602 CURVE",
"294 469 OFFCURVE",
"382 369 OFFCURVE",
"698 -45 CURVE"
);
}
);
width = 874;
}
);
unicode = 103D0;
},
{
glyphname = uni103D1;
lastChange = "2017-02-01 21:19:02 +0000";
layers = (
{
layerId = UUID0;
paths = (
{
closed = 1;
nodes = (
"297 -112 LINE",
"311 381 OFFCURVE",
"334 569 OFFCURVE",
"380 736 CURVE",
"342 728 OFFCURVE",
"305 724 OFFCURVE",
"269 724 CURVE SMOOTH",
"233 724 OFFCURVE",
"198 728 OFFCURVE",
"164 736 CURVE",
"219 538 OFFCURVE",
"237 407 OFFCURVE",
"271 -112 CURVE"
);
}
);
width = 544;
}
);
unicode = 103D1;
},
{
glyphname = uni103D2;
lastChange = "2017-02-01 21:19:02 +0000";
layers = (
{
layerId = UUID0;
paths = (
{
closed = 1;
nodes = (
"293 -112 LINE",
"304 119 OFFCURVE",
"334 272 OFFCURVE",
"380 383 CURVE",
"347 377 OFFCURVE",
"316 374 OFFCURVE",
"287 373 CURVE",
"306 554 OFFCURVE",
"354 683 OFFCURVE",
"381 748 CURVE",
"341 740 OFFCURVE",
"302 737 OFFCURVE",
"264 737 CURVE SMOOTH",
"230 737 OFFCURVE",
"197 739 OFFCURVE",
"165 744 CURVE",
"197 676 OFFCURVE",
"232 564 OFFCURVE",
"263 373 CURVE",
"229 373 OFFCURVE",
"197 376 OFFCURVE",
"164 383 CURVE",
"219 250 OFFCURVE",
"242 128 OFFCURVE",
"267 -112 CURVE"
);
}
);
width = 544;
}
);
unicode = 103D2;
},
{
glyphname = uni103D3;
lastChange = "2017-02-01 21:19:02 +0000";
layers = (
{
layerId = UUID0;
paths = (
{
closed = 1;
nodes = (
"587 -105 LINE",
"460 79 OFFCURVE",
"376 209 OFFCURVE",
"327 293 CURVE",
"392 411 OFFCURVE",
"467 551 OFFCURVE",
"564 747 CURVE",
"545 757 LINE",
"384 551 OFFCURVE",
"215 366 OFFCURVE",
"122 281 CURVE",
"221 201 OFFCURVE",
"350 94 OFFCURVE",
"570 -120 CURVE"
);
}
);
width = 696;
}
);
unicode = 103D3;
},
{
glyphname = uni103D4;
lastChange = "2017-02-01 21:19:02 +0000";
layers = (
{
layerId = UUID0;
paths = (
{
closed = 1;
nodes = (
"399 343 LINE",
"335 426 OFFCURVE",
"291 494 OFFCURVE",
"264 537 CURVE",
"299 594 OFFCURVE",
"334 665 OFFCURVE",
"386 756 CURVE",
"364 772 LINE",
"277 671 OFFCURVE",
"171 580 OFFCURVE",
"122 537 CURVE",
"190 487 OFFCURVE",
"262 428 OFFCURVE",
"378 325 CURVE"
);
},
{
closed = 1;
nodes = (
"399 -129 LINE",
"335 -46 OFFCURVE",
"291 22 OFFCURVE",
"264 65 CURVE",
"299 122 OFFCURVE",
"334 192 OFFCURVE",
"386 285 CURVE",
"364 299 LINE",
"277 199 OFFCURVE",
"171 106 OFFCURVE",
"122 65 CURVE",
"190 15 OFFCURVE",
"262 -44 OFFCURVE",
"378 -147 CURVE"
);
}
);
width = 528;
}
);
unicode = 103D4;
},
{
glyphname = uni103D5;
lastChange = "2017-02-01 21:19:02 +0000";
layers = (
{
layerId = UUID0;
paths = (
{
closed = 1;
nodes = (
"463 -112 LINE",
"478 211 OFFCURVE",
"501 425 OFFCURVE",
"546 547 CURVE",
"507 541 OFFCURVE",
"471 538 OFFCURVE",
"436 538 CURVE SMOOTH",
"401 538 OFFCURVE",
"366 541 OFFCURVE",
"331 547 CURVE",
"385 401 OFFCURVE",
"403 231 OFFCURVE",
"437 -112 CURVE"
);
},
{
closed = 1;
nodes = (
"182 555 OFFCURVE",
"268 592 OFFCURVE",
"418 625 CURVE",
"418 646 LINE",
"279 665 OFFCURVE",
"176 709 OFFCURVE",
"130 737 CURVE",
"137 694 OFFCURVE",
"140 655 OFFCURVE",
"140 617 CURVE SMOOTH",
"140 585 OFFCURVE",
"138 553 OFFCURVE",
"134 521 CURVE"
);
},
{
closed = 1;
nodes = (
"744 575 OFFCURVE",
"741 614 OFFCURVE",
"741 652 CURVE SMOOTH",
"741 684 OFFCURVE",
"743 716 OFFCURVE",
"747 748 CURVE",
"700 716 OFFCURVE",
"613 677 OFFCURVE",
"463 644 CURVE",
"463 623 LINE",
"602 605 OFFCURVE",
"705 560 OFFCURVE",
"751 532 CURVE"
);
}
);
width = 881;
}
);
unicode = 103D5;
},
